<svg width="16" height="17" viewBox="0 0 16 17" fill="none" xmlns="http://www.w3.org/2000/svg">
<path d="M15.4352 6.64856L9.35234 0.565738C9.17261 0.386224 8.95928 0.243868 8.72453 0.146798C8.48978 0.0497287 8.23821 -0.000153137 7.98419 3.53147e-07C7.47116 0.00031034 6.97927 0.204407 6.61672 0.567392C6.25417 0.930376 6.05067 1.42251 6.05098 1.93554C6.05129 2.44857 6.25539 2.94046 6.61837 3.30301L7.50435 4.18898C7.65892 4.34431 7.76408 4.54189 7.80662 4.75684C7.84916 4.9718 7.82718 5.19454 7.74342 5.39703C7.65967 5.59952 7.5179 5.77272 7.33594 5.89482C7.15399 6.01693 6.93998 6.08249 6.72086 6.08325L1.93394 6.08325C1.42103 6.08325 0.929123 6.28701 0.566439 6.64969C0.203754 7.01238 7.54017e-07 7.50428 8.05553e-07 8.01719C8.5709e-07 8.53011 0.203755 9.02201 0.566439 9.3847C0.929123 9.74738 1.42103 9.95113 1.93394 9.95113L6.72086 9.95113C6.93998 9.9519 7.15399 10.0175 7.33594 10.1396C7.5179 10.2617 7.65967 10.4349 7.74342 10.6374C7.82718 10.8398 7.84917 11.0626 7.80663 11.2775C7.76409 11.4925 7.65892 11.6901 7.50435 11.8454L6.61838 12.7314C6.25539 13.0939 6.05129 13.5858 6.05098 14.0988C6.05067 14.6119 6.25418 15.104 6.61672 15.467C6.97927 15.83 7.47116 16.0341 7.98419 16.0344C8.49721 16.0347 8.98935 15.8312 9.35234 15.4686L15.4352 9.38583C15.7969 9.0222 16 8.53013 16 8.01719C16 7.50426 15.7969 7.01219 15.4352 6.64856Z" fill="#FF646D"/>
</svg>
