<svg width="251" height="63" viewBox="0 0 251 63" fill="none" xmlns="http://www.w3.org/2000/svg">
<g clip-path="url(#clip0_503_884)">
<path d="M125.607 5.8645H132.302V31.899H148.297V37.6019H125.607V5.8645Z" fill="#5E055B"/>
<path d="M170.942 34.7327C168.943 37.1775 165.909 38.3999 161.835 38.3999C157.761 38.3999 154.732 37.1775 152.728 34.7327C150.729 32.2879 149.73 29.3429 149.73 25.8979C149.73 22.5136 150.729 19.5787 152.728 17.0986C154.732 14.6184 157.766 13.3757 161.835 13.3757C165.909 13.3757 168.943 14.6184 170.942 17.0986C172.94 19.5787 173.94 22.5136 173.94 25.8979C173.94 29.3429 172.94 32.2828 170.942 34.7327ZM165.985 31.3382C166.954 30.0653 167.444 28.2519 167.444 25.8979C167.444 23.5491 166.959 21.7357 165.985 20.4678C165.017 19.1999 163.62 18.5634 161.815 18.5634C160.004 18.5634 158.607 19.1999 157.628 20.4678C156.649 21.7357 156.16 23.5491 156.16 25.8979C156.16 28.2519 156.649 30.0602 157.628 31.3382C158.602 32.6162 159.999 33.2527 161.815 33.2527C163.62 33.2527 165.017 32.6162 165.985 31.3382Z" fill="#5E055B"/>
<path d="M190.42 13.5828C190.496 13.5929 190.68 13.603 190.955 13.6182V19.902C190.562 19.8616 190.216 19.8313 189.915 19.8162C189.609 19.801 189.364 19.7959 189.175 19.7959C186.682 19.7959 185.01 20.5991 184.153 22.2054C183.674 23.1096 183.434 24.5038 183.434 26.3829V37.6018H177.198V14.1334H183.108V18.225C184.061 16.6591 184.897 15.5882 185.606 15.0174C186.764 14.0577 188.273 13.5778 190.129 13.5778C190.246 13.5727 190.343 13.5727 190.42 13.5828Z" fill="#5E055B"/>
<path d="M208.908 14.6084C210.56 15.3408 211.927 16.4976 213.003 18.0786C213.972 19.4728 214.604 21.0892 214.889 22.933C215.053 24.0089 215.124 25.5647 215.093 27.5903H197.839C197.935 29.9442 198.761 31.596 200.317 32.5406C201.265 33.1316 202.402 33.4245 203.733 33.4245C205.145 33.4245 206.293 33.0659 207.175 32.3486C207.654 31.9597 208.082 31.4242 208.449 30.7322H214.772C214.604 32.1264 213.839 33.5407 212.478 34.9753C210.356 37.2585 207.384 38.4001 203.565 38.4001C200.408 38.4001 197.629 37.4403 195.218 35.5107C192.806 33.5862 191.608 30.4544 191.608 26.1153C191.608 22.054 192.689 18.9323 194.866 16.7653C197.043 14.5983 199.868 13.5123 203.335 13.5123C205.4 13.5072 207.256 13.8709 208.908 14.6084ZM199.644 19.9072C198.767 20.8013 198.221 22.0136 197.997 23.5391H208.669C208.551 21.9126 208.006 20.675 207.017 19.8315C206.033 18.9879 204.804 18.5686 203.345 18.5686C201.749 18.5686 200.516 19.0131 199.644 19.9072Z" fill="#5E055B"/>
<path d="M246.676 14.2194C247.691 14.6235 248.609 15.3257 249.44 16.3309C250.108 17.1492 250.556 18.1544 250.786 19.3465C250.929 20.1345 251.005 21.2913 251.005 22.8117L250.959 37.602H244.611V22.6551C244.611 21.7661 244.468 21.0337 244.178 20.4578C243.627 19.3667 242.612 18.8212 241.139 18.8212C239.425 18.8212 238.248 19.5233 237.595 20.9326C237.258 21.6802 237.095 22.5794 237.095 23.625V37.5969H230.854V23.625C230.854 22.2359 230.711 21.2206 230.416 20.5891C229.896 19.4577 228.876 18.8869 227.351 18.8869C225.587 18.8869 224.399 19.4577 223.792 20.5891C223.461 21.2357 223.292 22.1955 223.292 23.4734V37.5969H217.01V14.174H223.027V17.5988C223.797 16.3763 224.521 15.5126 225.204 14.9923C226.403 14.073 227.963 13.6133 229.875 13.6133C231.685 13.6133 233.149 14.0073 234.265 14.7953C235.163 15.5277 235.846 16.4673 236.31 17.619C237.121 16.24 238.13 15.2297 239.329 14.5831C240.603 13.9366 242.026 13.6133 243.591 13.6133C244.631 13.6133 245.661 13.8153 246.676 14.2194Z" fill="#5E055B"/>
<path d="M146.849 46.7852H148.221V58.8376H146.849V46.7852Z" fill="#5E055B"/>
<path d="M160.474 46.7852H165.027C167.77 46.7852 169.58 48.2298 169.58 50.6039V50.6393C169.58 53.2407 167.388 54.5844 164.803 54.5844H161.845V58.8376H160.468V46.7852H160.474ZM164.854 53.3468C166.868 53.3468 168.193 52.281 168.193 50.6949V50.6595C168.193 48.937 166.893 48.0429 164.925 48.0429H161.85V53.3468H164.854V53.3468Z" fill="#5E055B"/>
<path d="M179.982 57.0797L180.834 56.0795C182.103 57.2161 183.317 57.7818 185.004 57.7818C186.641 57.7818 187.717 56.9231 187.717 55.731V55.6956C187.717 54.5742 187.11 53.9378 184.551 53.4023C181.751 52.8012 180.466 51.9071 180.466 49.927V49.8917C180.466 47.9974 182.154 46.6033 184.459 46.6033C186.233 46.6033 187.503 47.1034 188.737 48.0833L187.941 49.134C186.81 48.2247 185.678 47.8257 184.428 47.8257C182.848 47.8257 181.843 48.6844 181.843 49.7704V49.8058C181.843 50.9423 182.465 51.5788 185.142 52.1496C187.855 52.7356 189.104 53.7155 189.104 55.5542V55.5896C189.104 57.6555 187.365 58.9992 184.954 58.9992C183.021 59.0093 181.44 58.3728 179.982 57.0797Z" fill="#5E055B"/>
<path d="M200.408 53.7913V46.7852H201.785V53.7055C201.785 56.3069 203.192 57.7667 205.502 57.7667C207.741 57.7667 209.168 56.4231 209.168 53.7913V46.7852H210.54V53.6903C210.54 57.201 208.505 59.0295 205.461 59.0295C202.458 59.0295 200.408 57.201 200.408 53.7913Z" fill="#5E055B"/>
<path d="M222.482 46.7852H223.874L228.305 53.362L232.736 46.7852H234.128V58.8376H232.756V49.0734L228.325 55.529H228.254L223.823 49.0886V58.8376H222.482V46.7852V46.7852Z" fill="#5E055B"/>
<path d="M46.6603 24.8726L31.0321 43.9362L46.6603 62.9999H77.8913L46.6603 24.8726Z" fill="#9F4EA0"/>
<path d="M77.8913 24.8726L46.6501 62.9999H77.8913L109.132 24.8726H77.8913Z" fill="#E8A7F9"/>
<path opacity="0.2" d="M77.8913 24.8726L78.9366 27.9438H103.055L76.846 59.9287L77.8913 62.9999L109.132 24.8726H77.8913Z" fill="#5E055B"/>
<path d="M62.4823 0H31.2411L62.4823 38.1324L78.1003 19.0687L62.4823 0Z" fill="#FFBAF0"/>
<path d="M31.2412 0L0 38.1324H31.2412L46.8643 19.0687L31.2412 0Z" fill="#D869CD"/>
<path opacity="0.2" d="M62.4823 0H31.2411L37.3191 3.07625H61.437L74.5413 19.0687H78.1003L62.4823 0Z" fill="#5E055B"/>
<path d="M31.2411 0L46.8643 19.0687L43.2695 23.4533L31.2411 0Z" fill="#C84ACB"/>
<path d="M46.6501 62.9999L62.2733 43.9362L58.6785 39.5466L46.6501 62.9999Z" fill="#611F5A"/>
</g>
<defs>
<clipPath id="clip0_503_884">
<rect width="251" height="63" fill="white"/>
</clipPath>
</defs>
</svg>
