<svg width="126" height="34" viewBox="0 0 126 34" fill="none" xmlns="http://www.w3.org/2000/svg">
<path d="M0.607056 0.864502H7.30196V26.899H23.2973V32.6019H0.607056V0.864502Z" fill="#5E055B"/>
<path d="M45.9417 29.7327C43.9429 32.1775 40.909 33.3999 36.835 33.3999C32.7609 33.3999 29.7322 32.1775 27.7283 29.7327C25.7295 27.2879 24.7301 24.3429 24.7301 20.8979C24.7301 17.5136 25.7295 14.5787 27.7283 12.0986C29.7322 9.61836 32.766 8.37573 36.835 8.37573C40.909 8.37573 43.9429 9.61836 45.9417 12.0986C47.9404 14.5787 48.9398 17.5136 48.9398 20.8979C48.9398 24.3429 47.9404 27.2828 45.9417 29.7327ZM40.9855 26.3382C41.9543 25.0653 42.4438 23.2519 42.4438 20.8979C42.4438 18.5491 41.9594 16.7357 40.9855 15.4678C40.0167 14.1999 38.6196 13.5634 36.8146 13.5634C35.0045 13.5634 33.6074 14.1999 32.6284 15.4678C31.6494 16.7357 31.1599 18.5491 31.1599 20.8979C31.1599 23.2519 31.6494 25.0602 32.6284 26.3382C33.6023 27.6162 34.9994 28.2527 36.8146 28.2527C38.6196 28.2527 40.0167 27.6162 40.9855 26.3382Z" fill="#5E055B"/>
<path d="M65.4195 8.58283C65.496 8.59293 65.6796 8.60304 65.9549 8.61819V14.902C65.5623 14.8616 65.2156 14.8313 64.9147 14.8162C64.6088 14.801 64.3641 14.7959 64.1754 14.7959C61.682 14.7959 60.0096 15.5991 59.1529 17.2054C58.6736 18.1096 58.434 19.5038 58.434 21.3829V32.6018H52.198V9.13343H58.1077V13.225C59.0612 11.6591 59.8974 10.5882 60.6061 10.0174C61.7636 9.05766 63.2729 8.57778 65.1289 8.57778C65.2462 8.57273 65.3431 8.57273 65.4195 8.58283Z" fill="#5E055B"/>
<path d="M83.9083 9.60839C85.5604 10.3408 86.9269 11.4976 88.0028 13.0786C88.9716 14.4728 89.6038 16.0892 89.8894 17.933C90.0526 19.0089 90.1239 20.5647 90.0933 22.5903H72.8386C72.9354 24.9442 73.7615 26.596 75.3166 27.5406C76.265 28.1316 77.4021 28.4245 78.7329 28.4245C80.1453 28.4245 81.2926 28.0659 82.1747 27.3486C82.654 26.9597 83.0823 26.4242 83.4494 25.7322H89.7721C89.6038 27.1264 88.839 28.5407 87.4776 29.9753C85.3564 32.2585 82.3838 33.4001 78.5647 33.4001C75.4084 33.4001 72.6295 32.4403 70.2177 30.5107C67.8059 28.5862 66.6077 25.4544 66.6077 21.1153C66.6077 17.054 67.6886 13.9323 69.8659 11.7653C72.0431 9.59829 74.8679 8.51226 78.3352 8.51226C80.4003 8.50721 82.2563 8.8709 83.9083 9.60839ZM74.6436 14.9072C73.7666 15.8013 73.221 17.0136 72.9966 18.5391H83.6687C83.5514 16.9126 83.0058 15.675 82.0166 14.8315C81.0325 13.9879 79.8037 13.5686 78.3454 13.5686C76.7494 13.5686 75.5155 14.0131 74.6436 14.9072Z" fill="#5E055B"/>
<path d="M121.676 9.21944C122.691 9.62354 123.609 10.3257 124.44 11.3309C125.108 12.1492 125.556 13.1544 125.786 14.3465C125.929 15.1345 126.005 16.2913 126.005 17.8117L125.959 32.602H119.611V17.6551C119.611 16.7661 119.468 16.0337 119.178 15.4578C118.627 14.3667 117.612 13.8212 116.139 13.8212C114.425 13.8212 113.248 14.5233 112.595 15.9326C112.258 16.6802 112.095 17.5794 112.095 18.625V32.5969H105.854V18.625C105.854 17.2359 105.711 16.2206 105.416 15.5891C104.896 14.4577 103.876 13.8869 102.351 13.8869C100.587 13.8869 99.3988 14.4577 98.7921 15.5891C98.4606 16.2357 98.2924 17.1955 98.2924 18.4734V32.5969H92.0105V9.17398H98.0272V12.5988C98.7972 11.3763 99.5212 10.5126 100.204 9.99229C101.403 9.07295 102.963 8.61328 104.875 8.61328C106.685 8.61328 108.149 9.00728 109.265 9.79529C110.163 10.5277 110.846 11.4673 111.31 12.619C112.121 11.24 113.13 10.2297 114.329 9.58313C115.603 8.93657 117.026 8.61328 118.591 8.61328C119.631 8.61328 120.661 8.81533 121.676 9.21944Z" fill="#5E055B"/>
</svg>
