<svg width="89" height="14" viewBox="0 0 89 14" fill="none" xmlns="http://www.w3.org/2000/svg">
<path d="M0.849182 0.785156H2.2208V12.8376H0.849182V0.785156Z" fill="#5E055B"/>
<path d="M14.4735 0.785156H19.0269C21.7701 0.785156 23.5802 2.22983 23.5802 4.60395V4.63931C23.5802 7.24074 21.3877 8.58438 18.8025 8.58438H15.8452V12.8376H14.4684V0.785156H14.4735ZM18.8535 7.34681C20.8676 7.34681 22.1933 6.28099 22.1933 4.69487V4.65951C22.1933 2.93702 20.8931 2.04293 18.9249 2.04293H15.8503V7.34681H18.8535Z" fill="#5E055B"/>
<path d="M33.9821 11.0797L34.8336 10.0795C36.1032 11.2161 37.3167 11.7818 39.0045 11.7818C40.6412 11.7818 41.7171 10.9231 41.7171 9.731V9.69564C41.7171 8.57425 41.1104 7.93778 38.5507 7.40234C35.7514 6.80123 34.4664 5.90715 34.4664 3.92703V3.89167C34.4664 1.99743 36.1542 0.603271 38.4589 0.603271C40.2333 0.603271 41.503 1.10335 42.7369 2.08331L41.9415 3.13398C40.8095 2.22474 39.6776 1.82569 38.4283 1.82569C36.8477 1.82569 35.8432 2.68441 35.8432 3.77044V3.8058C35.8432 4.94235 36.4652 5.57881 39.1422 6.14961C41.8548 6.73556 43.104 7.71552 43.104 9.5542V9.58956C43.104 11.6555 41.3653 12.9992 38.9535 12.9992C37.021 13.0093 35.4403 12.3728 33.9821 11.0797Z" fill="#5E055B"/>
<path d="M54.4083 7.79133V0.785156H55.785V7.70546C55.785 10.3069 57.1923 11.7667 59.5022 11.7667C61.7406 11.7667 63.1683 10.4231 63.1683 7.79133V0.785156H64.5399V7.6903C64.5399 11.201 62.5054 13.0295 59.4614 13.0295C56.4581 13.0295 54.4083 11.201 54.4083 7.79133Z" fill="#5E055B"/>
<path d="M76.4817 0.785156H77.8737L82.3047 7.36197L86.7356 0.785156H88.1277V12.8376H86.756V3.0734L82.3251 9.52898H82.2537L77.8227 3.08855V12.8376H76.4817V0.785156Z" fill="#5E055B"/>
</svg>
