<svg width="24" height="24" viewBox="0 0 24 24" fill="none" xmlns="http://www.w3.org/2000/svg">
<path d="M12.479 18.019L13.9616 16.5358C14.1613 16.3385 14.4139 16.2035 14.6888 16.1471C14.9638 16.0906 15.2492 16.1153 15.5104 16.218L17.3173 16.9397C17.5812 17.0469 17.8075 17.2299 17.9677 17.4655C18.1279 17.7012 18.2148 17.979 18.2174 18.264V21.5747C18.2159 21.7685 18.1751 21.9601 18.0976 22.1378C18.0202 22.3155 17.9075 22.4756 17.7665 22.6086C17.6256 22.7416 17.4591 22.8447 17.2773 22.9117C17.0954 22.9786 16.9019 23.0081 16.7083 22.9983C4.04679 22.2103 1.49198 11.4837 1.00881 7.37849C0.986386 7.17689 1.00688 6.97283 1.06894 6.77973C1.13101 6.58662 1.23324 6.40885 1.36892 6.25811C1.50459 6.10737 1.67063 5.98708 1.85611 5.90515C2.04159 5.82321 2.24231 5.7815 2.44507 5.78274H5.64189C5.92716 5.78359 6.20566 5.86979 6.44156 6.03027C6.67746 6.19074 6.85997 6.41815 6.96563 6.68325L7.68707 8.49087C7.79313 8.75114 7.82019 9.0369 7.76487 9.31246C7.70954 9.58802 7.57428 9.84116 7.37599 10.0403L5.8934 11.5235C5.8934 11.5235 6.74721 17.3039 12.479 18.019Z" stroke="#5D055B" stroke-width="1.5"/>
<path d="M13.0962 1C12.7562 1 12.478 1.27835 12.478 1.61856C12.478 1.95877 12.7562 2.23712 13.0962 2.23712C17.8749 2.23712 21.7634 6.12788 21.7634 10.9032C21.7634 11.2434 22.0416 11.5217 22.3816 11.5217C22.7216 11.5217 22.9998 11.2434 22.9998 10.9032C22.9998 5.44746 18.5549 1 13.0962 1Z" fill="#5D055B" stroke="#5D055B" stroke-width="0.2"/>
<path d="M17.9574 10.9137C17.9574 11.2482 18.2311 11.5218 18.5655 11.5218C18.9 11.5218 19.1737 11.2482 19.1737 10.9137C19.1737 7.55673 16.4431 4.82617 13.0862 4.82617C12.7517 4.82617 12.478 5.09984 12.478 5.43431C12.478 5.76879 12.7517 6.04246 13.0862 6.04246C15.7742 6.04854 17.9574 8.23177 17.9574 10.9137Z" fill="#5D055B" stroke="#5D055B" stroke-width="0.2"/>
<path d="M12.4783 9.22601C12.4783 9.54166 12.7365 9.79993 13.0522 9.79993C13.6892 9.79993 14.2 10.3164 14.2 10.9478C14.2 11.2634 14.4583 11.5217 14.7739 11.5217C15.0896 11.5217 15.3478 11.2634 15.3478 10.9478C15.3478 9.6794 14.3205 8.6521 13.0522 8.6521C12.7308 8.6521 12.4783 8.91036 12.4783 9.22601Z" fill="#5D055B" stroke="#5D055B" stroke-width="0.2"/>
</svg>
