<svg width="110" height="63" viewBox="0 0 110 63" fill="none" xmlns="http://www.w3.org/2000/svg">
<path d="M46.6603 24.8726L31.0321 43.9362L46.6603 62.9999H77.8913L46.6603 24.8726Z" fill="#9F4EA0"/>
<path d="M77.8913 24.8726L46.6501 62.9999H77.8913L109.132 24.8726H77.8913Z" fill="#E8A7F9"/>
<path opacity="0.2" d="M77.8913 24.8726L78.9366 27.9438H103.055L76.846 59.9287L77.8913 62.9999L109.132 24.8726H77.8913Z" fill="#5E055B"/>
<path d="M62.4823 0H31.2411L62.4823 38.1324L78.1003 19.0687L62.4823 0Z" fill="#FFBAF0"/>
<path d="M31.2412 0L0 38.1324H31.2412L46.8643 19.0687L31.2412 0Z" fill="#D869CD"/>
<path opacity="0.2" d="M62.4823 0H31.2411L37.3191 3.07625H61.437L74.5413 19.0687H78.1003L62.4823 0Z" fill="#5E055B"/>
<path d="M31.2411 0L46.8643 19.0687L43.2695 23.4533L31.2411 0Z" fill="#C84ACB"/>
<path d="M46.6501 62.9999L62.2733 43.9362L58.6785 39.5466L46.6501 62.9999Z" fill="#611F5A"/>
</svg>
