<svg width="112" height="27" viewBox="0 0 112 27" fill="none" xmlns="http://www.w3.org/2000/svg">
<g clip-path="url(#clip0_503_2080)">
<path d="M56.0479 2.51343H59.0352V13.6711H66.1726V16.1152H56.0479V2.51343Z" fill="#5E055B"/>
<path d="M76.2769 14.8856C75.385 15.9334 74.0313 16.4573 72.2134 16.4573C70.3955 16.4573 69.044 15.9334 68.1498 14.8856C67.258 13.8379 66.812 12.5758 66.812 11.0993C66.812 9.64888 67.258 8.3911 68.1498 7.32816C69.044 6.26522 70.3978 5.73267 72.2134 5.73267C74.0313 5.73267 75.385 6.26522 76.2769 7.32816C77.1688 8.3911 77.6148 9.64888 77.6148 11.0993C77.6148 12.5758 77.1688 13.8357 76.2769 14.8856ZM74.0654 13.4309C74.4977 12.8853 74.7161 12.1081 74.7161 11.0993C74.7161 10.0927 74.5 9.31549 74.0654 8.77211C73.6331 8.22874 73.0097 7.95597 72.2043 7.95597C71.3966 7.95597 70.7732 8.22874 70.3363 8.77211C69.8995 9.31549 69.6811 10.0927 69.6811 11.0993C69.6811 12.1081 69.8995 12.8832 70.3363 13.4309C70.7709 13.9786 71.3943 14.2513 72.2043 14.2513C73.0097 14.2513 73.6331 13.9786 74.0654 13.4309Z" fill="#5E055B"/>
<path d="M84.968 5.82121C85.0021 5.82554 85.084 5.82987 85.2069 5.83637V8.52944C85.0317 8.51212 84.877 8.49913 84.7428 8.49264C84.6062 8.48614 84.497 8.48398 84.4129 8.48398C83.3003 8.48398 82.554 8.82819 82.1718 9.51661C81.9579 9.90412 81.851 10.5016 81.851 11.3069V16.1151H79.0684V6.05718H81.7053V7.81071C82.1308 7.13961 82.5039 6.68066 82.8202 6.43603C83.3367 6.02471 84.0101 5.81905 84.8383 5.81905C84.8907 5.81688 84.9339 5.81688 84.968 5.82121Z" fill="#5E055B"/>
<path d="M93.2184 6.26081C93.9555 6.57471 94.5653 7.07046 95.0454 7.74806C95.4776 8.34556 95.7598 9.03831 95.8872 9.82848C95.96 10.2896 95.9918 10.9564 95.9782 11.8245H88.2789C88.3221 12.8333 88.6907 13.5412 89.3846 13.946C89.8078 14.1993 90.3152 14.3249 90.909 14.3249C91.5392 14.3249 92.0512 14.1712 92.4448 13.8638C92.6587 13.6971 92.8498 13.4676 93.0136 13.171H95.8349C95.7598 13.7685 95.4185 14.3747 94.811 14.9895C93.8645 15.968 92.5381 16.4572 90.8339 16.4572C89.4256 16.4572 88.1856 16.0459 87.1094 15.219C86.0332 14.3941 85.4985 13.0519 85.4985 11.1923C85.4985 9.4518 85.9809 8.11392 86.9524 7.1852C87.9239 6.25648 89.1844 5.79104 90.7315 5.79104C91.653 5.78887 92.4812 5.94474 93.2184 6.26081ZM89.0843 8.53174C88.6929 8.91492 88.4495 9.43448 88.3494 10.0883H93.1114C93.0591 9.39118 92.8156 8.86079 92.3743 8.49926C91.9351 8.13773 91.3868 7.95805 90.7361 7.95805C90.0239 7.95805 89.4733 8.14856 89.0843 8.53174Z" fill="#5E055B"/>
<path d="M110.071 6.09401C110.523 6.2672 110.933 6.56811 111.304 6.99892C111.602 7.34962 111.802 7.78043 111.905 8.29133C111.968 8.62905 112.002 9.1248 112.002 9.77642L111.982 16.1151H109.149V9.70931C109.149 9.32829 109.086 9.01439 108.956 8.7676C108.71 8.29999 108.257 8.06619 107.6 8.06619C106.835 8.06619 106.31 8.3671 106.019 8.97109C105.868 9.29149 105.796 9.67684 105.796 10.125V16.1129H103.011V10.125C103.011 9.52963 102.947 9.09449 102.815 8.82388C102.583 8.33896 102.128 8.09433 101.448 8.09433C100.66 8.09433 100.13 8.33896 99.8595 8.82388C99.7116 9.10099 99.6366 9.51231 99.6366 10.06V16.1129H96.8335V6.07453H99.5183V7.54229C99.8618 7.0184 100.185 6.64821 100.49 6.42523C101.024 6.03123 101.721 5.83423 102.574 5.83423C103.382 5.83423 104.035 6.00309 104.533 6.3408C104.933 6.65471 105.238 7.05737 105.445 7.55095C105.807 6.95995 106.257 6.52698 106.792 6.24988C107.361 5.97278 107.996 5.83423 108.694 5.83423C109.158 5.83423 109.618 5.92082 110.071 6.09401Z" fill="#5E055B"/>
<path d="M65.5264 20.0508H66.1384V25.2161H65.5264V20.0508Z" fill="#5E055B"/>
<path d="M71.6058 20.0508H73.6376C74.8616 20.0508 75.6693 20.6699 75.6693 21.6874V21.7026C75.6693 22.8175 74.691 23.3933 73.5375 23.3933H72.2178V25.2161H71.6035V20.0508H71.6058ZM73.5602 22.8629C74.4589 22.8629 75.0505 22.4061 75.0505 21.7264V21.7112C75.0505 20.973 74.4703 20.5898 73.5921 20.5898H72.2201V22.8629H73.5602Z" fill="#5E055B"/>
<path d="M80.3105 24.4628L80.6905 24.0342C81.257 24.5212 81.7985 24.7637 82.5516 24.7637C83.282 24.7637 83.7621 24.3957 83.7621 23.8848V23.8696C83.7621 23.389 83.4913 23.1163 82.3491 22.8868C81.1 22.6292 80.5267 22.246 80.5267 21.3974V21.3822C80.5267 20.5704 81.2798 19.9729 82.3082 19.9729C83.1 19.9729 83.6665 20.1872 84.2171 20.6072L83.8622 21.0575C83.3571 20.6678 82.852 20.4968 82.2945 20.4968C81.5892 20.4968 81.141 20.8648 81.141 21.3303V21.3454C81.141 21.8325 81.4186 22.1053 82.6131 22.3499C83.8235 22.601 84.3809 23.021 84.3809 23.809V23.8242C84.3809 24.7096 83.6051 25.2854 82.5289 25.2854C81.6666 25.2898 80.9613 25.017 80.3105 24.4628Z" fill="#5E055B"/>
<path d="M89.4253 23.0534V20.0508H90.0396V23.0166C90.0396 24.1315 90.6676 24.7572 91.6982 24.7572C92.6971 24.7572 93.3341 24.1813 93.3341 23.0534V20.0508H93.9462V23.0101C93.9462 24.5147 93.0383 25.2984 91.68 25.2984C90.3399 25.2984 89.4253 24.5147 89.4253 23.0534Z" fill="#5E055B"/>
<path d="M99.2749 20.0508H99.896L101.873 22.8694L103.85 20.0508H104.472V25.2161H103.859V21.0315L101.882 23.7981H101.85L99.8733 21.038V25.2161H99.2749V20.0508Z" fill="#5E055B"/>
<path d="M20.8207 10.6597L13.8472 18.8298L20.8207 26.9999H34.7564L20.8207 10.6597Z" fill="#9F4EA0"/>
<path d="M34.7562 10.6597L20.8159 26.9999H34.7562L48.6965 10.6597H34.7562Z" fill="#E8A7F9"/>
<path opacity="0.2" d="M34.7565 10.6597L35.2229 11.9759H45.9847L34.29 25.6837L34.7565 26.9999L48.6967 10.6597H34.7565Z" fill="#5E055B"/>
<path d="M27.8807 0H13.9404L27.8807 16.3424L34.8497 8.17231L27.8807 0Z" fill="#FFBAF0"/>
<path d="M13.9403 0L0 16.3424H13.9403L20.9116 8.17231L13.9403 0Z" fill="#D869CD"/>
<path opacity="0.2" d="M27.8807 0H13.9404L16.6525 1.31839H27.4143L33.2616 8.17231H34.8497L27.8807 0Z" fill="#5E055B"/>
<path d="M13.9404 0L20.9117 8.17231L19.3077 10.0514L13.9404 0Z" fill="#C84ACB"/>
<path d="M20.8159 26.9999L27.7872 18.8297L26.1832 16.9485L20.8159 26.9999Z" fill="#611F5A"/>
</g>
<defs>
<clipPath id="clip0_503_2080">
<rect width="112" height="27" fill="white"/>
</clipPath>
</defs>
</svg>
