<svg width="25" height="26" viewBox="0 0 25 26" fill="none" xmlns="http://www.w3.org/2000/svg">
<path d="M24.1174 10.3884L14.613 0.883966C14.3322 0.603475 13.9989 0.381043 13.6321 0.229372C13.2653 0.0777011 12.8722 -0.000239276 12.4753 5.51792e-07C11.6737 0.000484906 10.9051 0.319386 10.3386 0.886549C9.77215 1.45371 9.45418 2.22268 9.45466 3.02428C9.45515 3.82589 9.77405 4.59447 10.3412 5.16095L11.7255 6.54529C11.9671 6.78799 12.1314 7.0967 12.1979 7.43257C12.2643 7.76844 12.23 8.11647 12.0991 8.43287C11.9682 8.74926 11.7467 9.01987 11.4624 9.21066C11.1781 9.40145 10.8437 9.50389 10.5013 9.50508L3.02178 9.50508C2.22036 9.50508 1.45175 9.82345 0.88506 10.3901C0.318366 10.9568 1.17815e-06 11.7254 1.25868e-06 12.5269C1.3392e-06 13.3283 0.318366 14.0969 0.885061 14.6636C1.45175 15.2303 2.22036 15.5486 3.02178 15.5486L10.5013 15.5486C10.8437 15.5498 11.1781 15.6523 11.4624 15.8431C11.7467 16.0339 11.9682 16.3045 12.0991 16.6209C12.23 16.9373 12.2643 17.2853 12.1979 17.6212C12.1314 17.957 11.9671 18.2657 11.7255 18.5084L10.3412 19.8928C9.77405 20.4593 9.45515 21.2278 9.45466 22.0294C9.45418 22.8311 9.77215 23.6 10.3386 24.1672C10.9051 24.7343 11.6737 25.0532 12.4753 25.0537C13.2769 25.0542 14.0459 24.7362 14.613 24.1698L24.1174 14.6654C24.6827 14.0972 25 13.3283 25 12.5269C25 11.7254 24.6827 10.9565 24.1174 10.3884Z" fill="#FF646D"/>
</svg>
