<svg width="24" height="24" viewBox="0 0 24 24" fill="none" xmlns="http://www.w3.org/2000/svg">
<path d="M22.5 8.59763H18.5951L15.5028 3.95261C15.4485 3.87007 15.3783 3.79908 15.2965 3.74372C15.2146 3.68836 15.1226 3.64973 15.0258 3.63003C14.9289 3.61034 14.8292 3.60998 14.7322 3.62897C14.6352 3.64796 14.5429 3.68593 14.4607 3.74069C14.3784 3.79545 14.3078 3.86593 14.2528 3.94808C14.1979 4.03022 14.1597 4.12242 14.1405 4.21936C14.1213 4.3163 14.1215 4.41608 14.141 4.51297C14.1604 4.60985 14.1989 4.70193 14.2541 4.78391L16.793 8.59766H7.20704L9.74597 4.78391C9.80116 4.70193 9.83959 4.60985 9.85908 4.51297C9.87856 4.41608 9.87871 4.3163 9.85952 4.21936C9.84032 4.12242 9.80215 4.03022 9.74721 3.94808C9.69227 3.86593 9.62164 3.79545 9.53938 3.74069C9.45711 3.68593 9.36484 3.64796 9.26786 3.62897C9.17087 3.60998 9.07109 3.61034 8.97425 3.63003C8.87741 3.64973 8.78541 3.68836 8.70355 3.74372C8.62168 3.79908 8.55156 3.87007 8.49722 3.95261L5.40486 8.59763H1.5C1.30109 8.59763 1.11032 8.67665 0.96967 8.8173C0.829018 8.95796 0.75 9.14872 0.75 9.34763C0.75 9.54655 0.829018 9.73731 0.96967 9.87796C1.11032 10.0186 1.30109 10.0976 1.5 10.0976H2.12461L4.25427 17.9873C4.44085 18.6742 4.84809 19.2808 5.41328 19.7136C5.97846 20.1463 6.67024 20.3813 7.38208 20.3823H16.6179C17.3298 20.3813 18.0215 20.1463 18.5867 19.7136C19.1519 19.2808 19.5591 18.6742 19.7457 17.9873L21.8754 10.0976H22.5C22.6989 10.0976 22.8897 10.0186 23.0303 9.87796C23.171 9.73731 23.25 9.54655 23.25 9.34763C23.25 9.14872 23.171 8.95796 23.0303 8.8173C22.8897 8.67665 22.6989 8.59763 22.5 8.59763ZM18.2977 17.5961C18.1975 17.965 17.9788 18.2908 17.6753 18.5232C17.3717 18.7556 17.0002 18.8817 16.6179 18.8823H7.38208C6.9998 18.8817 6.62829 18.7556 6.32475 18.5232C6.02121 18.2908 5.80249 17.9651 5.70225 17.5962L3.67823 10.0976H20.3218L18.2977 17.5961Z" fill="#5E055B"/>
<path d="M7.62189 16.3195C7.64757 16.4146 7.69173 16.5037 7.75184 16.5817C7.81195 16.6597 7.88684 16.7251 7.97223 16.7742C8.05761 16.8233 8.15183 16.855 8.2495 16.8677C8.34717 16.8804 8.44637 16.8736 8.54145 16.848C8.63652 16.8223 8.72561 16.7781 8.80362 16.718C8.88163 16.6579 8.94704 16.583 8.99611 16.4976C9.04518 16.4122 9.07695 16.318 9.08961 16.2204C9.10227 16.1227 9.09557 16.0235 9.06989 15.9284L8.18805 12.6611C8.13619 12.4691 8.01017 12.3055 7.83772 12.2064C7.66527 12.1073 7.46052 12.0808 7.2685 12.1326C7.07648 12.1845 6.91294 12.3105 6.81383 12.483C6.71473 12.6554 6.68819 12.8602 6.74006 13.0522L7.62189 16.3195Z" fill="#5E055B"/>
<path d="M15.4585 16.8483C15.6506 16.8998 15.8552 16.8731 16.0276 16.7739C16.2 16.6748 16.326 16.5114 16.3781 16.3195L17.2599 13.0522C17.3118 12.8602 17.2853 12.6554 17.1862 12.483C17.087 12.3105 16.9235 12.1845 16.7315 12.1326C16.5395 12.0808 16.3347 12.1073 16.1623 12.2064C15.9898 12.3055 15.8638 12.4691 15.8119 12.6611L14.9301 15.9284C14.8783 16.1205 14.9048 16.3253 15.0039 16.4977C15.103 16.6702 15.2665 16.7963 15.4585 16.8483Z" fill="#5E055B"/>
<path d="M12 16.874C12.0985 16.8741 12.196 16.8547 12.287 16.817C12.378 16.7793 12.4607 16.7241 12.5304 16.6544C12.6 16.5848 12.6553 16.5021 12.693 16.4111C12.7306 16.3201 12.75 16.2225 12.75 16.124V12.8567C12.75 12.6578 12.671 12.467 12.5303 12.3264C12.3897 12.1857 12.1989 12.1067 12 12.1067C11.8011 12.1067 11.6103 12.1857 11.4697 12.3264C11.329 12.467 11.25 12.6578 11.25 12.8567V16.124C11.25 16.2225 11.2694 16.3201 11.307 16.4111C11.3447 16.5021 11.4 16.5848 11.4696 16.6544C11.5393 16.7241 11.622 16.7793 11.713 16.817C11.804 16.8547 11.9015 16.8741 12 16.874Z" fill="#5E055B"/>
</svg>
