<svg width="74" height="75" viewBox="0 0 74 75" fill="none" xmlns="http://www.w3.org/2000/svg">
<g filter="url(#filter0_d_503_2211)">
<circle cx="33.9651" cy="34.4714" r="26.5705" fill="url(#paint0_linear_503_2211)"/>
</g>
<path d="M32.7168 19.3054C33.4674 19.3054 34.2103 19.3054 34.9608 19.3054C35.0298 19.3284 35.0987 19.3514 35.1676 19.3667C35.6195 19.428 36.079 19.4663 36.5309 19.5582C40.5287 20.3547 43.6917 22.4455 46.0047 25.8C46.7705 26.9105 47.3756 28.1206 47.7662 29.4226C45.392 29.4226 43.0101 29.4226 40.6359 29.4149C40.6359 29.323 40.6436 29.2234 40.6436 29.1315C40.6589 28.3733 40.2989 28.0593 39.5407 28.1972C39.3339 28.2355 39.1348 28.2891 38.928 28.335C38.7825 28.2967 38.6293 28.2201 38.4838 28.2201C34.8459 28.2125 31.2157 28.2125 27.5779 28.2201C25.15 28.2278 22.7222 28.2508 20.2944 28.2661C20.9071 26.7726 21.7649 25.4324 22.8448 24.2376C25.1271 21.7102 27.9378 20.1249 31.3 19.5352C31.7595 19.4433 32.242 19.3743 32.7168 19.3054Z" fill="white"/>
<path d="M48.5052 35.1587C48.4516 35.5186 48.4133 35.8862 48.329 36.2462C48.1529 37.035 47.9461 37.8162 47.7546 38.6051C47.5095 38.5668 47.2721 38.4979 47.027 38.4979C44.4231 38.4902 41.8115 38.4902 39.2075 38.4902C39.2075 38.4519 39.2075 38.4136 39.2152 38.3753C39.5751 36.1696 39.9428 33.9639 40.2951 31.7582C40.4176 30.977 40.5095 30.1882 40.6244 29.407C42.9986 29.407 45.3804 29.407 47.7546 29.4146C47.9461 30.2035 48.1529 30.9847 48.329 31.7735C48.4133 32.1335 48.4439 32.4934 48.5052 32.8611C48.5052 33.6269 48.5052 34.3928 48.5052 35.1587Z" fill="white"/>
<path d="M19.7017 38.1541C19.2192 36.5764 19.0354 34.9604 19.112 33.3138C19.1886 31.6289 19.5485 30.0053 20.1919 28.4429C20.2148 28.3816 20.2455 28.3203 20.2761 28.2591C22.7039 28.2438 25.1317 28.2131 27.5595 28.2131C31.1974 28.2055 34.8276 28.2131 38.4655 28.2131C38.611 28.2131 38.7642 28.2897 38.9097 28.328C38.4808 28.4888 38.0519 28.642 37.6307 28.8182C33.5869 30.5337 29.5355 32.2492 25.4917 33.9648C25.2926 34.049 25.0934 34.1639 24.9249 34.2941C24.5343 34.5928 24.565 34.9375 24.9939 35.1749C25.0858 35.2285 25.1777 35.2744 25.2772 35.3051C26.1197 35.5578 26.9545 35.8182 27.8046 36.0633C28.6011 36.293 29.3363 36.1169 30.0103 35.6574C30.1022 35.5961 30.2018 35.5272 30.2937 35.4659C32.2237 34.1869 34.146 32.9079 36.076 31.6289C36.1679 31.5676 36.2751 31.4987 36.3823 31.4834C36.4666 31.4681 36.6121 31.5064 36.6504 31.5753C36.6963 31.6442 36.681 31.7897 36.6351 31.8587C36.5432 32.0042 36.4206 32.1267 36.2981 32.2493C35.134 33.3674 33.9545 34.4779 32.7904 35.5961C32.4611 35.9101 32.1241 36.2318 31.8254 36.5764C31.4578 36.9976 31.4961 37.3423 31.902 37.7252C32.0322 37.8478 32.1777 37.9626 32.3156 38.0775C28.3101 38.0775 24.2969 38.0775 20.2914 38.0852C20.1 38.0928 19.9008 38.1311 19.7017 38.1541Z" fill="white"/>
<path d="M32.3243 38.0859C32.1864 37.971 32.0409 37.8638 31.9107 37.7336C31.5048 37.343 31.4665 37.006 31.8341 36.5848C32.1328 36.2402 32.4698 35.9185 32.7991 35.6045C33.9632 34.4863 35.135 33.3758 36.3068 32.2576C36.4293 32.1428 36.5519 32.0126 36.6438 31.867C36.6897 31.7905 36.7051 31.6449 36.6591 31.5837C36.6208 31.5224 36.4753 31.4841 36.391 31.4918C36.2838 31.5071 36.1766 31.576 36.0847 31.6373C34.1547 32.9163 32.2324 34.1953 30.3024 35.4743C30.2105 35.5356 30.1109 35.5968 30.019 35.6658C29.345 36.1253 28.6098 36.3014 27.8133 36.0717C26.9709 35.8266 26.1284 35.5662 25.2859 35.3135C25.1864 35.2828 25.0945 35.2369 25.0026 35.1833C24.5737 34.9458 24.543 34.6012 24.9336 34.3025C25.1098 34.1723 25.3013 34.0574 25.5004 33.9732C29.5442 32.25 33.588 30.5344 37.6394 28.8265C38.0606 28.6504 38.4972 28.4972 38.9184 28.3364C39.1252 28.2904 39.3243 28.2368 39.5311 28.1985C40.2817 28.0607 40.6493 28.367 40.634 29.1329C40.634 29.2248 40.6263 29.3244 40.6263 29.4163C40.5191 30.1975 40.4272 30.9863 40.297 31.7675C39.9447 33.9732 39.5771 36.1789 39.2171 38.3846C39.2094 38.4229 39.2094 38.4612 39.2094 38.4995C39.1865 38.6144 39.1712 38.7216 39.1405 38.8365C38.972 39.5104 38.8265 40.1997 38.6121 40.866C38.4742 41.2796 38.1296 41.4634 37.7007 41.3791C37.356 41.3102 36.9961 41.1877 36.6974 41.0115C36.0158 40.6056 35.3571 40.1461 34.6985 39.7095C33.902 39.1581 33.1131 38.622 32.3243 38.0859Z" fill="#27A5E4"/>
<path d="M32.3242 38.0847C33.113 38.6208 33.9018 39.1646 34.6984 39.693C35.357 40.1372 36.0156 40.5891 36.6973 40.995C37.0036 41.1788 37.3559 41.3014 37.7006 41.3626C38.1371 41.4469 38.4817 41.2631 38.6119 40.8495C38.8264 40.1832 38.9719 39.5016 39.1404 38.8199C39.171 38.7127 39.1863 38.5978 39.2093 38.483C41.8133 38.483 44.4249 38.483 47.0288 38.4906C47.2739 38.4906 47.5113 38.5596 47.7564 38.5978C47.496 39.2105 47.2739 39.8462 46.9752 40.4436C46.6153 41.1482 46.2323 41.8451 45.7881 42.4961C44.6087 44.1963 43.1153 45.5749 41.3384 46.6318C38.9259 48.064 36.3143 48.7762 33.5189 48.6997C29.2683 48.5848 25.6994 46.9228 22.835 43.7828C21.4182 42.2281 20.3996 40.4359 19.7792 38.4217C19.7486 38.3298 19.7256 38.2379 19.7026 38.146C19.9018 38.123 20.1009 38.0847 20.3 38.0847C24.3055 38.0847 28.3187 38.0847 32.3242 38.0847Z" fill="white"/>
<defs>
<filter id="filter0_d_503_2211" x="0.394531" y="0.900879" width="73.1411" height="73.1411" filterUnits="userSpaceOnUse" color-interpolation-filters="sRGB">
<feFlood flood-opacity="0" result="BackgroundImageFix"/>
<feColorMatrix in="SourceAlpha" type="matrix" values="0 0 0 0 0 0 0 0 0 0 0 0 0 0 0 0 0 0 127 0" result="hardAlpha"/>
<feOffset dx="3" dy="3"/>
<feGaussianBlur stdDeviation="5"/>
<feComposite in2="hardAlpha" operator="out"/>
<feColorMatrix type="matrix" values="0 0 0 0 0 0 0 0 0 0 0 0 0 0 0 0 0 0 0.3 0"/>
<feBlend mode="normal" in2="BackgroundImageFix" result="effect1_dropShadow_503_2211"/>
<feBlend mode="normal" in="SourceGraphic" in2="effect1_dropShadow_503_2211" result="shape"/>
</filter>
<linearGradient id="paint0_linear_503_2211" x1="7.39453" y1="14.2461" x2="57.6994" y2="60.2987" gradientUnits="userSpaceOnUse">
<stop stop-color="#56BFF3"/>
<stop offset="1" stop-color="#057BB6"/>
</linearGradient>
</defs>
</svg>
