<svg width="20" height="20" viewBox="0 0 20 20" fill="none" xmlns="http://www.w3.org/2000/svg">
<path d="M17.9537 18.926L17.9542 18.9266C18.0834 19.0542 18.2579 19.1255 18.4395 19.125C18.6211 19.1244 18.7952 19.052 18.9236 18.9236C19.052 18.7952 19.1244 18.6211 19.125 18.4395C19.1255 18.2579 19.0542 18.0834 18.9266 17.9542L18.926 17.9536L18.9253 17.953L18.9253 17.9529L15.4425 14.4702C16.44 13.2908 17.0874 11.8547 17.31 10.3246C17.5381 8.75601 17.3102 7.15489 16.6533 5.7123C15.9964 4.26971 14.9383 3.04657 13.6053 2.18885C12.2723 1.33113 10.7207 0.875036 9.13559 0.875C7.5018 0.874997 5.9047 1.35947 4.54625 2.26715C3.18781 3.17484 2.12903 4.46496 1.5038 5.97439C0.878579 7.48381 0.714992 9.14474 1.03373 10.7471C1.35247 12.3495 2.13921 13.8214 3.29448 14.9767C4.77372 16.4559 6.7591 17.3188 8.84981 17.3912C10.9016 17.4622 12.9049 16.7667 14.4703 15.4426L17.9537 18.926ZM14.0042 14.0046L14.0042 14.0047C13.3663 14.646 12.6077 15.1544 11.772 15.5005C10.9364 15.8466 10.0404 16.0235 9.13593 16.021L9.13559 16.146L9.13559 16.021C7.77381 16.021 6.44263 15.6171 5.31037 14.8605C4.17811 14.1039 3.29562 13.0286 2.77449 11.7705C2.25337 10.5124 2.11701 9.12795 2.38266 7.79234C2.64831 6.45676 3.30401 5.22994 4.26686 4.267C5.55908 2.98036 7.30892 2.25885 9.13245 2.2608C10.956 2.26275 12.7044 2.98804 13.9939 4.27751C15.2833 5.56699 16.0086 7.31534 16.0105 9.13893C16.0125 10.9625 15.2909 12.7124 14.0042 14.0046Z" fill="#5E055B" stroke="#5E055B" stroke-width="0.25"/>
</svg>
