<svg width="24" height="18" viewBox="0 0 24 18" fill="none" xmlns="http://www.w3.org/2000/svg">
<path d="M22.5 5.59763H18.5951L15.5028 0.952614C15.4485 0.870071 15.3783 0.799081 15.2965 0.743722C15.2146 0.688363 15.1226 0.649727 15.0258 0.630034C14.9289 0.610341 14.8292 0.609979 14.7322 0.628969C14.6352 0.647959 14.5429 0.685926 14.4607 0.740689C14.3784 0.795453 14.3078 0.865933 14.2528 0.948079C14.1979 1.03022 14.1597 1.12242 14.1405 1.21936C14.1213 1.3163 14.1215 1.41608 14.141 1.51297C14.1604 1.60985 14.1989 1.70193 14.2541 1.78391L16.793 5.59766H7.20704L9.74597 1.78391C9.80116 1.70193 9.83959 1.60985 9.85908 1.51297C9.87856 1.41608 9.87871 1.3163 9.85952 1.21936C9.84032 1.12242 9.80215 1.03022 9.74721 0.948079C9.69227 0.865933 9.62164 0.795453 9.53938 0.740689C9.45711 0.685926 9.36484 0.647959 9.26786 0.628969C9.17087 0.609979 9.07109 0.610341 8.97425 0.630034C8.87741 0.649727 8.78541 0.688363 8.70355 0.743722C8.62168 0.799081 8.55156 0.870071 8.49722 0.952614L5.40486 5.59763H1.5C1.30109 5.59763 1.11032 5.67665 0.96967 5.8173C0.829018 5.95796 0.75 6.14872 0.75 6.34763C0.75 6.54655 0.829018 6.73731 0.96967 6.87796C1.11032 7.01862 1.30109 7.09763 1.5 7.09763H2.12461L4.25427 14.9873C4.44085 15.6742 4.84809 16.2808 5.41328 16.7136C5.97846 17.1463 6.67024 17.3813 7.38208 17.3823H16.6179C17.3298 17.3813 18.0215 17.1463 18.5867 16.7136C19.1519 16.2808 19.5591 15.6742 19.7457 14.9873L21.8754 7.09763H22.5C22.6989 7.09763 22.8897 7.01862 23.0303 6.87796C23.171 6.73731 23.25 6.54655 23.25 6.34763C23.25 6.14872 23.171 5.95796 23.0303 5.8173C22.8897 5.67665 22.6989 5.59763 22.5 5.59763ZM18.2977 14.5961C18.1975 14.965 17.9788 15.2908 17.6753 15.5232C17.3717 15.7556 17.0002 15.8817 16.6179 15.8823H7.38208C6.9998 15.8817 6.62829 15.7556 6.32475 15.5232C6.02121 15.2908 5.80249 14.9651 5.70225 14.5962L3.67823 7.09763H20.3218L18.2977 14.5961Z" fill="#5E055B"/>
</svg>
