<svg width="20" height="20" viewBox="0 0 20 20" fill="none" xmlns="http://www.w3.org/2000/svg">
<path d="M18.0421 18.8376L14.4768 15.2723C12.9226 16.625 10.9132 17.3376 8.85414 17.2663C6.79506 17.195 4.83972 16.3452 3.38286 14.8883C2.24508 13.7505 1.47024 12.3009 1.15633 10.7228C0.842413 9.1446 1.00352 7.50881 1.61929 6.02222C2.23505 4.53564 3.27781 3.26503 4.6157 2.37109C5.95359 1.47714 7.52652 0.999997 9.13559 1C10.6967 1.00004 12.2249 1.44923 13.5377 2.29397C14.8505 3.13871 15.8926 4.34334 16.5395 5.7641C17.1865 7.18486 17.411 8.76175 17.1863 10.3066C16.9616 11.8515 16.2971 13.2991 15.2723 14.4767L18.0421 18.8376ZM18.0421 18.8376C18.1478 18.9421 18.2905 19.0004 18.4391 19M18.0421 18.8376L18.4391 19M18.4391 19C18.5877 18.9995 18.7301 18.9403 18.8352 18.8352M18.4391 19L18.8352 18.8352M18.8352 18.8352C18.9403 18.7301 18.9995 18.5877 19 18.4391M18.8352 18.8352L19 18.4391M19 18.4391C19.0004 18.2905 18.9421 18.1478 18.8376 18.042L19 18.4391ZM18.9247 17.9524L15.4425 14.4702C16.44 13.2908 17.0874 11.8547 17.31 10.3246C17.5381 8.75601 17.3102 7.15489 16.6533 5.7123C15.9964 4.26971 14.9383 3.04657 13.6053 2.18885C12.2723 1.33113 10.7207 0.875036 9.13559 0.875C7.5018 0.874997 5.9047 1.35947 4.54625 2.26715C3.18781 3.17484 2.12903 4.46496 1.5038 5.97439C0.878579 7.48381 0.714992 9.14474 1.03373 10.7471C1.35247 12.3495 2.13921 13.8214 3.29448 14.9767C4.77372 16.4559 6.7591 17.3188 8.84981 17.3912C10.9016 17.4622 12.9049 16.7667 14.4703 15.4426L17.9537 18.926L17.9542 18.9266C18.0834 19.0542 18.2579 19.1255 18.4395 19.125C18.6211 19.1244 18.7952 19.052 18.9236 18.9236C19.052 18.7952 19.1244 18.6211 19.125 18.4395C19.1255 18.2579 19.0542 18.0834 18.9266 17.9542L18.926 17.9536L18.9248 17.9525L18.9247 17.9524ZM9.13593 16.021H9.13559C7.77381 16.021 6.44263 15.6171 5.31037 14.8605C4.17811 14.1039 3.29562 13.0286 2.77449 11.7705C2.25337 10.5124 2.11701 9.12795 2.38266 7.79234C2.6483 6.45678 3.30399 5.22999 4.26681 4.26705C5.55903 2.98038 7.30889 2.25885 9.13245 2.2608C10.956 2.26275 12.7044 2.98804 13.9939 4.27751C15.2833 5.56699 16.0086 7.31534 16.0105 9.13893C16.0125 10.9625 15.2909 12.7124 14.0042 14.0046L14.0042 14.0047C13.3663 14.646 12.6077 15.1544 11.772 15.5005C10.9364 15.8466 10.0404 16.0235 9.13593 16.021Z" fill="#5E055B" stroke="#5E055B" stroke-width="0.25"/>
</svg>
