<svg width="74" height="75" viewBox="0 0 74 75" fill="none" xmlns="http://www.w3.org/2000/svg">
<g filter="url(#filter0_d_503_2202)">
<circle cx="33.5705" cy="34.4714" r="26.5705" fill="url(#paint0_linear_503_2202)"/>
</g>
<path d="M33.3207 20.0601C34.6383 20.0601 35.9657 19.9703 37.2833 20.0801C40.9264 20.3895 43.6912 22.1861 45.5976 25.2803C46.5957 26.8972 47.0848 28.6739 47.0947 30.5703C47.1047 32.2771 47.1147 33.9839 47.0848 35.7006C47.0049 40.6712 43.1622 45.1129 38.2514 45.9014C37.5028 46.0211 36.7443 46.0511 35.9857 46.0711C34.4386 46.091 32.8915 46.081 31.3445 46.0711C31.085 46.0711 30.9053 46.1409 30.7256 46.3306C29.3782 47.688 28.0307 49.0355 26.6733 50.3729C26.5335 50.5127 26.3339 50.6424 26.1443 50.6724C25.8448 50.7123 25.6552 50.4528 25.6552 50.0635C25.6552 48.5264 25.6452 46.9993 25.6652 45.4622C25.6652 45.1727 25.5754 45.033 25.3258 44.8933C21.6328 42.8471 19.6665 39.713 19.5367 35.481C19.4868 33.7842 19.5068 32.0874 19.5367 30.3906C19.6166 25.4599 23.4094 21.0582 28.2503 20.1999C29.7974 19.9204 31.3544 20.0402 32.9115 20.0002C33.0512 20.0002 33.181 20.0002 33.3207 20.0002C33.3207 20.0202 33.3207 20.0402 33.3207 20.0601ZM24.7669 29.5522C24.7868 30.6701 25.1462 31.7082 25.6452 32.6863C27.2023 35.7705 29.498 38.2159 32.2927 40.2121C33.5104 41.0805 34.798 41.7991 36.2752 42.1185C37.1934 42.3181 38.1017 42.3281 38.8503 41.6394C39.3693 41.1603 39.8784 40.6613 40.3774 40.1422C40.9963 39.4935 40.9863 38.5253 40.3674 37.8865C39.6588 37.1479 38.9401 36.4193 38.2115 35.7006C37.3631 34.8522 36.1554 35.0918 35.6763 36.1897C35.317 37.0181 34.5285 37.4174 33.69 37.078C31.8435 36.3294 30.536 35.0119 29.8074 33.1554C29.4381 32.2072 29.8074 31.5085 30.7556 31.1292C31.7936 30.71 32.0831 29.4923 31.3245 28.6739C30.6059 27.8854 29.8673 27.1368 29.1087 26.3882C28.4499 25.7394 27.4917 25.7494 26.823 26.3882C26.4038 26.7974 26.0045 27.2266 25.5654 27.6159C24.9865 28.1349 24.7469 28.7837 24.7669 29.5522ZM41.8946 31.4786C41.8546 31.0294 41.8347 30.6701 41.7848 30.3108C41.3057 26.7076 37.8921 23.9528 34.2689 24.2422C33.8797 24.2722 33.6701 24.4718 33.69 24.7812C33.71 25.0906 33.9496 25.2503 34.3288 25.2603C34.8279 25.2703 35.327 25.2603 35.816 25.3601C39.2895 26.0588 41.3855 29.2029 40.7068 32.6763C40.627 33.0656 40.7467 33.3251 41.0462 33.395C41.3855 33.4748 41.635 33.2952 41.7049 32.866C41.7848 32.3869 41.8347 31.8878 41.8946 31.4786ZM34.6183 27.3065C36.5846 27.2965 38.2115 28.5341 38.6607 30.3906C38.7804 30.8697 38.7505 31.3788 38.7804 31.8679C38.7904 32.1673 38.9401 32.3769 39.2096 32.3869C39.3793 32.3969 39.5889 32.2571 39.7286 32.1174C39.8185 32.0275 39.8185 31.8379 39.8185 31.6882C39.9482 29.4724 38.6108 27.4063 36.5447 26.6078C35.7961 26.3183 35.0275 26.2285 34.229 26.2884C33.8797 26.3183 33.6701 26.5479 33.69 26.8373C33.71 27.1268 33.9496 27.3264 34.2889 27.3164C34.4187 27.3164 34.5384 27.3065 34.6183 27.3065ZM34.8678 28.3146C34.4586 28.3046 34.219 28.4743 34.2091 28.8036C34.1991 29.113 34.3987 29.3027 34.748 29.3426C35.9657 29.4624 36.6345 30.1311 36.7543 31.3588C36.7842 31.6982 37.0138 31.9178 37.3032 31.8878C37.5927 31.8579 37.7923 31.6183 37.7823 31.279C37.7524 29.7319 36.4149 28.3645 34.8678 28.3146Z" fill="white"/>
<path d="M24.767 29.5529C24.7371 28.7843 24.9866 28.1356 25.5655 27.6165C26.0047 27.2273 26.404 26.7981 26.8232 26.3889C27.4919 25.7501 28.4501 25.7401 29.1089 26.3889C29.8674 27.1374 30.606 27.886 31.3347 28.6646C32.0932 29.483 31.8038 30.6907 30.7657 31.1199C29.8175 31.5092 29.4482 32.2079 29.8175 33.1461C30.5461 35.0026 31.8437 36.3301 33.7002 37.0687C34.5386 37.4081 35.3271 37.0088 35.6864 36.1804C36.1556 35.0824 37.3633 34.8429 38.2217 35.6913C38.9503 36.4099 39.659 37.1386 40.3776 37.8772C40.9964 38.526 41.0064 39.4841 40.3876 40.1329C39.8985 40.642 39.3895 41.141 38.8605 41.6301C38.1119 42.3288 37.2036 42.3088 36.2853 42.1092C34.8081 41.7898 33.5105 41.0711 32.3028 40.2028C29.5081 38.2066 27.2124 35.7612 25.6554 32.677C25.1463 31.6988 24.787 30.6708 24.767 29.5529Z" fill="#857CCA"/>
<path d="M41.8943 31.4783C41.8444 31.8875 41.7845 32.3866 41.7047 32.8756C41.6348 33.2948 41.3753 33.4845 41.0459 33.4046C40.7564 33.3348 40.6367 33.0753 40.7065 32.686C41.3853 29.2125 39.2892 26.0585 35.8158 25.3698C35.3367 25.27 34.8276 25.28 34.3286 25.27C33.9493 25.26 33.7097 25.1103 33.6898 24.7909C33.6698 24.4815 33.8794 24.2819 34.2687 24.2519C37.8919 23.9625 41.2954 26.7073 41.7845 30.3205C41.8244 30.6698 41.8444 31.0291 41.8943 31.4783Z" fill="#857CCA"/>
<path d="M34.6164 27.3061C34.5365 27.3061 34.4167 27.3261 34.297 27.3261C33.9576 27.3361 33.718 27.1364 33.6981 26.847C33.6781 26.5575 33.8877 26.328 34.2371 26.298C35.0256 26.2281 35.8041 26.328 36.5527 26.6174C38.6188 27.4159 39.9563 29.482 39.8265 31.6978C39.8165 31.8475 39.8165 32.0372 39.7367 32.127C39.6069 32.2568 39.3973 32.3965 39.2177 32.3965C38.9482 32.3865 38.7985 32.1769 38.7885 31.8775C38.7685 31.3784 38.7885 30.8694 38.6687 30.4003C38.2096 28.5338 36.5727 27.2961 34.6164 27.3061Z" fill="#857CCA"/>
<path d="M34.8652 28.315C36.4123 28.3649 37.7497 29.7323 37.7797 31.2794C37.7897 31.6187 37.59 31.8583 37.3006 31.8882C37.0111 31.9182 36.7916 31.6986 36.7516 31.3592C36.6319 30.1415 35.9631 29.4728 34.7454 29.343C34.3861 29.3031 34.1964 29.1135 34.2064 28.8041C34.2164 28.4747 34.446 28.295 34.8652 28.315Z" fill="#857CCA"/>
<defs>
<filter id="filter0_d_503_2202" x="0" y="0.900879" width="73.1411" height="73.1411" filterUnits="userSpaceOnUse" color-interpolation-filters="sRGB">
<feFlood flood-opacity="0" result="BackgroundImageFix"/>
<feColorMatrix in="SourceAlpha" type="matrix" values="0 0 0 0 0 0 0 0 0 0 0 0 0 0 0 0 0 0 127 0" result="hardAlpha"/>
<feOffset dx="3" dy="3"/>
<feGaussianBlur stdDeviation="5"/>
<feComposite in2="hardAlpha" operator="out"/>
<feColorMatrix type="matrix" values="0 0 0 0 0 0 0 0 0 0 0 0 0 0 0 0 0 0 0.3 0"/>
<feBlend mode="normal" in2="BackgroundImageFix" result="effect1_dropShadow_503_2202"/>
<feBlend mode="normal" in="SourceGraphic" in2="effect1_dropShadow_503_2202" result="shape"/>
</filter>
<linearGradient id="paint0_linear_503_2202" x1="7" y1="14.2461" x2="55.9522" y2="58.2052" gradientUnits="userSpaceOnUse">
<stop stop-color="#9C93DD"/>
<stop offset="1" stop-color="#5A4FB3"/>
</linearGradient>
</defs>
</svg>
