<svg width="74" height="75" viewBox="0 0 74 75" fill="none" xmlns="http://www.w3.org/2000/svg">
<g filter="url(#filter0_d_503_2219)">
<circle cx="33.9416" cy="34.4714" r="26.5705" fill="url(#paint0_linear_503_2219)"/>
</g>
<path d="M20.4053 35.3603C20.4053 34.6808 20.4053 34.0014 20.4053 33.322C20.4249 33.2763 20.451 33.2306 20.4575 33.1848C20.549 32.6034 20.6013 32.0089 20.7254 31.434C21.9209 26.0053 26.3893 21.8569 31.8573 21.0795C32.1513 21.0403 32.4453 20.9815 32.7392 20.9358C33.4186 20.9358 34.0981 20.9358 34.7775 20.9358C34.8167 20.9554 34.8493 20.9815 34.8885 20.9815C35.9926 21.073 37.0705 21.3016 38.1223 21.6544C43.9561 23.6273 47.7451 29.5134 47.0984 35.6412C46.7979 38.4634 45.7526 40.985 43.845 43.1017C40.6635 46.6294 36.6851 48.1189 31.9618 47.557C30.0412 47.3284 28.2708 46.6555 26.6441 45.6103C26.4873 45.5123 26.3567 45.4927 26.1868 45.5515C25.2396 45.865 24.2858 46.1655 23.332 46.4726C22.6656 46.6882 21.9993 46.8972 21.2937 47.1193C21.3264 47.0083 21.3525 46.9364 21.3721 46.8646C21.8556 45.4143 22.339 43.964 22.8355 42.5137C22.9269 42.2589 22.9073 42.076 22.7506 41.8474C21.555 40.1227 20.8234 38.2216 20.5359 36.1377C20.5098 35.8764 20.451 35.6216 20.4053 35.3603ZM38.1484 41.8604C38.1549 41.8408 38.1615 41.8212 38.1615 41.8016C38.3183 41.7951 38.4751 41.7951 38.6318 41.7755C38.8474 41.7428 39.063 41.7036 39.2655 41.6318C41.1666 40.9654 41.8068 40.0508 41.8525 38.2935C41.8591 38.0387 41.7545 37.8623 41.5259 37.7513C40.5198 37.2744 39.5203 36.7779 38.5142 36.3141C38.0112 36.0789 37.7172 36.1769 37.3841 36.6211C37.1228 36.9673 36.868 37.3266 36.6001 37.6663C36.1755 38.202 35.9011 38.2674 35.2674 38.0126C33.0855 37.1176 31.4523 35.5889 30.2306 33.6029C29.9563 33.1587 29.9693 32.9954 30.309 32.6034C30.5638 32.316 30.8251 32.0351 31.0668 31.7411C31.2759 31.4798 31.4784 31.1923 31.3281 30.833C30.8578 29.7028 30.3809 28.5727 29.8909 27.449C29.8387 27.3249 29.7015 27.1877 29.5773 27.1616C28.8718 26.9917 28.1597 26.9787 27.5522 27.4294C26.9642 27.8606 26.5657 28.4551 26.3109 29.141C25.821 30.4541 25.9843 31.7345 26.5265 32.9954C26.925 33.9165 27.4999 34.72 28.0879 35.517C28.9698 36.7126 29.9693 37.797 31.0995 38.7639C32.6282 40.0704 34.4116 40.9001 36.3192 41.4684C36.9202 41.6318 37.5409 41.7298 38.1484 41.8604Z" fill="white"/>
<path d="M38.1523 41.8613C37.5448 41.7306 36.9242 41.6326 36.3297 41.4562C34.4221 40.8879 32.6452 40.0582 31.11 38.7516C29.9798 37.7848 28.9803 36.7003 28.0983 35.5048C27.5104 34.7078 26.9355 33.8978 26.537 32.9832C25.9948 31.7223 25.8314 30.4419 26.3214 29.1288C26.5762 28.4428 26.9747 27.8549 27.5626 27.4172C28.1702 26.9664 28.8823 26.986 29.5878 27.1493C29.7119 27.1755 29.8491 27.3192 29.9014 27.4368C30.3914 28.5604 30.8683 29.6906 31.3386 30.8208C31.4889 31.1801 31.2864 31.4675 31.0773 31.7289C30.8421 32.0294 30.5743 32.3037 30.3195 32.5912C29.9733 32.9832 29.9667 33.1399 30.2411 33.5907C31.4627 35.5832 33.0959 37.1054 35.2779 38.0004C35.9116 38.2617 36.1925 38.1898 36.6106 37.6541C36.8784 37.3144 37.1332 36.9551 37.3945 36.6089C37.7277 36.1646 38.0282 36.0732 38.5247 36.3018C39.5308 36.7722 40.5303 37.2622 41.5363 37.7391C41.765 37.8501 41.8695 38.02 41.863 38.2813C41.8173 40.0386 41.1836 40.9597 39.276 41.6195C39.0735 41.6914 38.8579 41.7306 38.6423 41.7633C38.4855 41.7894 38.3287 41.7829 38.1719 41.7894C38.1589 41.8221 38.1589 41.8417 38.1523 41.8613Z" fill="#4CAE50"/>
<defs>
<filter id="filter0_d_503_2219" x="0.371094" y="0.900879" width="73.1411" height="73.1411" filterUnits="userSpaceOnUse" color-interpolation-filters="sRGB">
<feFlood flood-opacity="0" result="BackgroundImageFix"/>
<feColorMatrix in="SourceAlpha" type="matrix" values="0 0 0 0 0 0 0 0 0 0 0 0 0 0 0 0 0 0 127 0" result="hardAlpha"/>
<feOffset dx="3" dy="3"/>
<feGaussianBlur stdDeviation="5"/>
<feComposite in2="hardAlpha" operator="out"/>
<feColorMatrix type="matrix" values="0 0 0 0 0 0 0 0 0 0 0 0 0 0 0 0 0 0 0.3 0"/>
<feBlend mode="normal" in2="BackgroundImageFix" result="effect1_dropShadow_503_2219"/>
<feBlend mode="normal" in="SourceGraphic" in2="effect1_dropShadow_503_2219" result="shape"/>
</filter>
<linearGradient id="paint0_linear_503_2219" x1="7.37109" y1="7.90088" x2="56.2515" y2="59.6092" gradientUnits="userSpaceOnUse">
<stop stop-color="#70DA74"/>
<stop offset="1" stop-color="#18871D"/>
</linearGradient>
</defs>
</svg>
