<svg width="25" height="29" viewBox="0 0 25 29" fill="none" xmlns="http://www.w3.org/2000/svg">
<path d="M24.3222 14.635C24.0254 13.3457 22.9708 12.3947 21.7015 12.2531C18.6963 11.9174 15.6532 11.9158 12.6249 11.9174C9.59531 11.9158 6.55278 11.9174 3.54666 12.2531C2.27796 12.395 1.22398 13.3461 0.927545 14.635C0.505067 16.4709 0.5 18.475 0.5 20.3654C0.5 22.2558 0.5 24.2595 0.922478 26.0955C1.21891 27.3844 2.27289 28.3355 3.54222 28.4774C6.54771 28.8134 9.59025 28.8146 12.6195 28.8134C15.649 28.815 18.6909 28.8134 21.6974 28.4774C22.9661 28.3355 24.0207 27.3844 24.3171 26.0955C24.7393 24.2595 24.7415 22.2558 24.7415 20.3654C24.7412 18.4747 24.7444 16.4709 24.3222 14.635ZM7.41452 16.058H5.66V25.381H4.03026V16.058H2.30773V14.5308H7.41452V16.058ZM11.841 25.3813H10.375V24.4993C9.79262 25.1669 9.23966 25.4925 8.70095 25.4925C8.22875 25.4925 7.90382 25.3012 7.75719 24.8917C7.67738 24.6472 7.62797 24.2602 7.62797 23.6895V17.2966H9.09271V23.249C9.09271 23.5923 9.09271 23.7706 9.10601 23.8187C9.14117 24.0461 9.25233 24.1614 9.44868 24.1614C9.74258 24.1614 10.0498 23.9349 10.3747 23.4754V17.2966H11.8407L11.841 25.3813ZM17.4064 22.9547C17.4064 23.7025 17.3561 24.2412 17.2582 24.5838C17.0625 25.1853 16.6707 25.4925 16.088 25.4925C15.5667 25.4925 15.0638 25.203 14.5738 24.5981V25.3816H13.1091V14.5308H14.5738V18.0744C15.047 17.492 15.5493 17.1974 16.088 17.1974C16.6707 17.1974 17.0628 17.5043 17.2582 18.1095C17.3567 18.4348 17.4064 18.9694 17.4064 19.7348V22.9547ZM22.935 21.6059H20.0053V23.039C20.0053 23.7873 20.2501 24.161 20.7536 24.161C21.1143 24.161 21.3243 23.965 21.4079 23.5736C21.4215 23.4941 21.4409 23.1685 21.4409 22.581H22.9354V22.7948C22.9354 23.267 22.9173 23.5923 22.904 23.7386C22.8549 24.0629 22.7396 24.3571 22.562 24.6161C22.1563 25.2033 21.5552 25.4928 20.79 25.4928C20.0236 25.4928 19.4403 25.2169 19.0168 24.6649C18.7062 24.2602 18.5465 23.623 18.5465 22.7638V19.9321C18.5465 19.0679 18.6881 18.4357 18.9994 18.0272C19.4225 17.4739 20.0056 17.1984 20.7539 17.1984C21.489 17.1984 22.0717 17.4739 22.4822 18.0272C22.789 18.4357 22.9357 19.0679 22.9357 19.9321V21.6059H22.935Z" fill="#5E055B"/>
<path d="M20.7395 18.5173C20.2498 18.5173 20.0044 18.8914 20.0044 19.6388V20.3868H21.4691V19.6388C21.4688 18.8914 21.224 18.5173 20.7395 18.5173Z" fill="#5E055B"/>
<path d="M15.3048 18.5173C15.0635 18.5173 14.819 18.6313 14.5742 18.8736V23.8012C14.8187 24.0463 15.0635 24.1622 15.3048 24.1622C15.7273 24.1622 15.942 23.8012 15.942 23.0712V19.6204C15.942 18.8914 15.7273 18.5173 15.3048 18.5173Z" fill="#5E055B"/>
<path d="M16.1211 11.1728C16.6611 11.1728 17.2229 10.8447 17.8123 10.1695V11.0607H19.2929V2.89014H17.8123V9.13483C17.4842 9.59848 17.1732 9.82777 16.8771 9.82777C16.6789 9.82777 16.5623 9.71059 16.53 9.48099C16.512 9.43253 16.512 9.25233 16.512 8.90554V2.89014H15.0361V9.35082C15.0361 9.92785 15.0855 10.3183 15.1672 10.5657C15.3161 10.9796 15.6445 11.1728 16.1211 11.1728Z" fill="#5E055B"/>
<path d="M5.81495 6.62056V11.061H7.45673V6.62056L9.43167 0.097168H7.77153L6.65136 4.40271L5.4859 0.097168H3.7583C4.10445 1.11346 4.46454 2.13482 4.8107 3.15206C5.33737 4.68109 5.6661 5.83388 5.81495 6.62056Z" fill="#5E055B"/>
<path d="M11.6334 11.1732C12.3751 11.1732 12.9515 10.8942 13.3604 10.3368C13.6711 9.92795 13.8199 9.28379 13.8199 8.41539V5.55432C13.8199 4.68087 13.6714 4.0424 13.3604 3.62974C12.9515 3.07076 12.3755 2.79175 11.6334 2.79175C10.8955 2.79175 10.3194 3.07076 9.90962 3.62974C9.59514 4.0424 9.44629 4.68087 9.44629 5.55432V8.41539C9.44629 9.28379 9.59514 9.92795 9.90962 10.3368C10.3191 10.8942 10.8955 11.1732 11.6334 11.1732ZM10.9269 5.25758C10.9269 4.50161 11.1562 4.12474 11.6334 4.12474C12.1107 4.12474 12.3393 4.5013 12.3393 5.25758V8.69441C12.3393 9.45037 12.1107 9.82851 11.6334 9.82851C11.1562 9.82851 10.9269 9.45037 10.9269 8.69441V5.25758Z" fill="#5E055B"/>
</svg>
