<svg width="126" height="34" fill="none" xmlns="http://www.w3.org/2000/svg"><path d="M.607.865h6.695v26.034h15.995v5.703H.607V.865ZM45.942 29.733c-2 2.445-5.033 3.667-9.107 3.667-4.074 0-7.103-1.222-9.107-3.667-1.998-2.445-2.998-5.39-2.998-8.835 0-3.384 1-6.32 2.998-8.8 2.004-2.48 5.038-3.722 9.107-3.722 4.074 0 7.108 1.242 9.107 3.723 1.998 2.48 2.998 5.415 2.998 8.799 0 3.445-1 6.385-2.998 8.835Zm-4.956-3.395c.968-1.273 1.458-3.086 1.458-5.44 0-2.349-.485-4.162-1.459-5.43-.968-1.268-2.365-1.905-4.17-1.905-1.81 0-3.208.637-4.187 1.905-.979 1.268-1.468 3.081-1.468 5.43 0 2.354.49 4.162 1.468 5.44.974 1.278 2.371 1.915 4.187 1.915 1.805 0 3.202-.637 4.17-1.915ZM65.42 8.583c.076.01.26.02.535.035v6.284c-.393-.04-.74-.07-1.04-.086-.306-.015-.55-.02-.74-.02-2.493 0-4.165.803-5.022 2.41-.48.904-.719 2.298-.719 4.177v11.219h-6.236V9.133h5.91v4.092c.953-1.566 1.79-2.637 2.498-3.208 1.158-.96 2.667-1.44 4.523-1.44a1.76 1.76 0 0 1 .29.006ZM83.908 9.608c1.652.733 3.019 1.89 4.095 3.47.969 1.395 1.6 3.011 1.886 4.855.164 1.076.235 2.632.204 4.657H72.84c.096 2.354.922 4.006 2.478 4.95.948.592 2.085.884 3.416.884 1.412 0 2.56-.358 3.442-1.075.479-.39.907-.925 1.274-1.617h6.323c-.168 1.394-.933 2.809-2.294 4.243-2.122 2.283-5.094 3.425-8.913 3.425-3.157 0-5.936-.96-8.347-2.89-2.412-1.924-3.61-5.056-3.61-9.395 0-4.061 1.08-7.183 3.258-9.35 2.177-2.167 5.002-3.253 8.47-3.253 2.064-.005 3.92.359 5.572 1.096Zm-9.264 5.3c-.877.893-1.423 2.106-1.647 3.631h10.672c-.118-1.626-.663-2.864-1.652-3.708-.984-.843-2.213-1.262-3.672-1.262-1.596 0-2.83.444-3.701 1.338ZM121.676 9.22c1.015.404 1.933 1.106 2.764 2.11.668.82 1.116 1.824 1.346 3.017.143.787.219 1.944.219 3.465l-.046 14.79h-6.348V17.655c0-.889-.143-1.621-.433-2.197-.551-1.091-1.566-1.637-3.039-1.637-1.714 0-2.891.702-3.544 2.112-.337.747-.5 1.646-.5 2.692v13.972h-6.241V18.625c0-1.39-.143-2.404-.438-3.036-.52-1.131-1.54-1.702-3.065-1.702-1.764 0-2.952.57-3.559 1.702-.331.647-.5 1.606-.5 2.884v14.124H92.01V9.174h6.017v3.425c.77-1.223 1.494-2.086 2.177-2.607 1.199-.92 2.759-1.379 4.671-1.379 1.81 0 3.274.394 4.39 1.182.898.733 1.581 1.672 2.045 2.824.811-1.379 1.82-2.39 3.019-3.036 1.274-.646 2.697-.97 4.262-.97 1.04 0 2.07.202 3.085.606Z" fill="#5E055B"/></svg>