<svg width="110" height="63" fill="none" xmlns="http://www.w3.org/2000/svg"><path d="M46.66 24.873 31.032 43.936 46.66 63h31.231l-31.23-38.127Z" fill="#9F4EA0"/><path d="M77.891 24.873 46.651 63h31.24l31.241-38.127h-31.24Z" fill="#E8A7F9"/><path opacity=".2" d="m77.891 24.873 1.046 3.07h24.118L76.846 59.93l1.045 3.07 31.241-38.126h-31.24Z" fill="#5E055B"/><path d="M62.482 0h-31.24l31.24 38.132L78.1 19.07 62.482 0Z" fill="#FFBAF0"/><path d="M31.241 0 0 38.132h31.241L46.864 19.07 31.241 0Z" fill="#D869CD"/><path opacity=".2" d="M62.482 0h-31.24l6.077 3.076h24.118L74.541 19.07h3.56L62.481 0Z" fill="#5E055B"/><path d="m31.241 0 15.623 19.069-3.594 4.384L31.24 0Z" fill="#C84ACB"/><path d="m46.65 63 15.623-19.064-3.595-4.39L46.65 63Z" fill="#611F5A"/></svg>