<svg width="89" height="14" fill="none" xmlns="http://www.w3.org/2000/svg"><path d="M.85.785h1.37v12.053H.85V.785ZM14.473.785h4.554c2.743 0 4.553 1.445 4.553 3.819v.035c0 2.602-2.192 3.945-4.777 3.945h-2.958v4.254h-1.377V.785h.005Zm4.38 6.562c2.015 0 3.34-1.066 3.34-2.652V4.66c0-1.723-1.3-2.617-3.268-2.617H15.85v5.304h3.004ZM33.982 11.08l.852-1c1.27 1.136 2.483 1.702 4.17 1.702 1.637 0 2.713-.859 2.713-2.051v-.035c0-1.122-.607-1.758-3.166-2.294-2.8-.6-4.085-1.495-4.085-3.475v-.035c0-1.895 1.688-3.289 3.993-3.289 1.774 0 3.044.5 4.278 1.48l-.796 1.051c-1.132-.91-2.263-1.308-3.513-1.308-1.58 0-2.585.858-2.585 1.944v.036c0 1.136.622 1.773 3.3 2.344 2.712.586 3.961 1.566 3.961 3.404v.036c0 2.066-1.739 3.41-4.15 3.41-1.933.01-3.514-.627-4.972-1.92ZM54.408 7.791V.785h1.377v6.92c0 2.602 1.407 4.062 3.717 4.062 2.239 0 3.666-1.344 3.666-3.976V.785h1.372V7.69c0 3.511-2.035 5.34-5.079 5.34-3.003 0-5.053-1.829-5.053-5.239ZM76.482.785h1.392l4.43 6.577L86.737.785h1.392v12.053h-1.372V3.073l-4.43 6.456h-.072l-4.431-6.44v9.749h-1.341V.785Z" fill="#5E055B"/></svg>