<svg width="24" height="24" fill="none" xmlns="http://www.w3.org/2000/svg"><path d="m12.479 18.019 1.483-1.483a1.449 1.449 0 0 1 1.548-.318l1.807.722a1.444 1.444 0 0 1 .9 1.324v3.31a1.437 1.437 0 0 1-1.509 1.424C4.047 22.21 1.492 11.484 1.008 7.378a1.438 1.438 0 0 1 1.437-1.595h3.197a1.43 1.43 0 0 1 1.324.9l.721 1.808a1.43 1.43 0 0 1-.311 1.55l-1.483 1.482s.854 5.78 6.586 6.496Z" stroke="#5D055B" stroke-width="1.5"/><path d="M13.096 1a.62.62 0 0 0-.618.619c0 .34.278.618.618.618 4.779 0 8.667 3.89 8.667 8.666 0 .34.279.619.619.619a.62.62 0 0 0 .618-.619C23 5.447 18.555 1 13.096 1Z" fill="#5D055B" stroke="#5D055B" stroke-width=".2"/><path d="M17.957 10.914a.61.61 0 0 0 .608.608.61.61 0 0 0 .609-.608 6.094 6.094 0 0 0-6.088-6.088.61.61 0 0 0-.608.608.61.61 0 0 0 .608.608c2.688.007 4.871 2.19 4.871 4.872ZM12.478 9.226c0 .316.258.574.574.574.637 0 1.148.516 1.148 1.148 0 .315.258.574.574.574a.576.576 0 0 0 .574-.574 2.295 2.295 0 0 0-2.296-2.296.572.572 0 0 0-.574.574Z" fill="#5D055B" stroke="#5D055B" stroke-width=".2"/></svg>