<svg width="29" height="29" fill="none" xmlns="http://www.w3.org/2000/svg"><path d="M8.725.75h11.55c4.4 0 7.975 3.575 7.975 7.975v11.55a7.975 7.975 0 0 1-7.975 7.975H8.725c-4.4 0-7.975-3.575-7.975-7.975V8.725A7.975 7.975 0 0 1 8.725.75ZM8.45 3.5A4.95 4.95 0 0 0 3.5 8.45v12.1a4.947 4.947 0 0 0 4.95 4.95h12.1a4.95 4.95 0 0 0 4.95-4.95V8.45a4.947 4.947 0 0 0-4.95-4.95H8.45Zm13.269 2.063a1.719 1.719 0 1 1 0 3.437 1.719 1.719 0 0 1 0-3.438ZM14.5 7.624a6.875 6.875 0 1 1 0 13.75 6.875 6.875 0 0 1 0-13.75Zm0 2.75a4.125 4.125 0 1 0 0 8.25 4.125 4.125 0 0 0 0-8.25Z" fill="#5E055B"/></svg>