<svg width="112" height="27" fill="none" xmlns="http://www.w3.org/2000/svg"><g clip-path="url(#a)"><path d="M56.048 2.513h2.987v11.158h7.138v2.444H56.048V2.513ZM76.277 14.886c-.892 1.047-2.246 1.571-4.064 1.571-1.817 0-3.169-.524-4.063-1.571-.892-1.048-1.338-2.31-1.338-3.787 0-1.45.446-2.708 1.338-3.77.894-1.064 2.248-1.596 4.063-1.596 1.818 0 3.172.532 4.064 1.595.892 1.063 1.338 2.32 1.338 3.771 0 1.477-.446 2.737-1.338 3.787Zm-2.212-1.455c.433-.546.651-1.323.651-2.332 0-1.006-.216-1.784-.65-2.327-.433-.543-1.056-.816-1.862-.816-.807 0-1.43.273-1.868.816-.436.543-.655 1.32-.655 2.327 0 1.01.219 1.784.655 2.332.435.548 1.058.82 1.868.82.806 0 1.43-.272 1.861-.82ZM84.968 5.821c.034.005.116.009.239.015V8.53a6.99 6.99 0 0 0-.794-.045c-1.113 0-1.859.344-2.241 1.033-.214.387-.321.985-.321 1.79v4.808h-2.783V6.057h2.637v1.754c.426-.671.799-1.13 1.115-1.375.517-.411 1.19-.617 2.018-.617a.817.817 0 0 1 .13.002ZM93.218 6.26c.737.315 1.347.81 1.827 1.488.433.598.715 1.29.842 2.08.073.462.105 1.128.091 1.997h-7.7c.044 1.008.413 1.716 1.107 2.121.423.253.93.379 1.524.379.63 0 1.142-.154 1.536-.461.214-.167.405-.396.569-.693h2.82c-.074.598-.416 1.204-1.023 1.819-.947.978-2.273 1.467-3.977 1.467-1.408 0-2.648-.411-3.725-1.238-1.076-.825-1.61-2.167-1.61-4.027 0-1.74.482-3.078 1.453-4.007.972-.929 2.232-1.394 3.78-1.394.921-.002 1.75.154 2.486.47Zm-4.134 2.272c-.391.383-.635.902-.735 1.556h4.762c-.052-.697-.295-1.227-.737-1.589-.439-.361-.987-.541-1.638-.541-.712 0-1.263.19-1.652.574ZM110.071 6.094c.452.173.862.474 1.233.905.298.35.498.781.601 1.292.063.338.097.834.097 1.485l-.02 6.34h-2.833V9.708c0-.38-.063-.695-.193-.941-.246-.468-.699-.702-1.356-.702-.765 0-1.29.301-1.581.905-.151.32-.223.706-.223 1.154v5.988h-2.785v-5.988c0-.595-.064-1.03-.196-1.301-.232-.485-.687-.73-1.367-.73-.788 0-1.318.245-1.588.73-.148.277-.223.688-.223 1.236v6.053h-2.803V6.075h2.684v1.467c.344-.524.667-.894.972-1.117.534-.394 1.231-.59 2.084-.59.808 0 1.461.168 1.959.506.4.314.705.716.912 1.21.362-.591.812-1.024 1.347-1.301a4.29 4.29 0 0 1 1.902-.416c.464 0 .924.087 1.377.26ZM65.526 20.05h.612v5.166h-.612v-5.165ZM71.606 20.05h2.032c1.224 0 2.031.62 2.031 1.637v.016c0 1.114-.978 1.69-2.132 1.69h-1.32v1.823h-.614v-5.165h.003Zm1.954 2.813c.899 0 1.49-.457 1.49-1.137v-.015c0-.738-.58-1.121-1.458-1.121H72.22v2.273h1.34ZM80.31 24.463l.38-.429c.567.487 1.109.73 1.862.73.73 0 1.21-.368 1.21-.88v-.014c0-.481-.27-.754-1.413-.983-1.249-.258-1.822-.641-1.822-1.49v-.015c0-.812.753-1.41 1.781-1.41.792 0 1.358.215 1.91.635l-.356.45c-.505-.39-1.01-.56-1.567-.56-.706 0-1.154.368-1.154.833v.015c0 .488.278.76 1.472 1.005 1.21.251 1.768.671 1.768 1.459v.015c0 .886-.776 1.461-1.852 1.461-.862.005-1.568-.268-2.218-.822ZM89.425 23.053v-3.002h.615v2.966c0 1.114.628 1.74 1.658 1.74 1 0 1.636-.576 1.636-1.704v-3.002h.612v2.96c0 1.504-.908 2.287-2.266 2.287-1.34 0-2.255-.783-2.255-2.245ZM99.275 20.05h.621l1.977 2.82 1.977-2.82h.622v5.166h-.613v-4.184l-1.977 2.766h-.032l-1.977-2.76v4.178h-.598v-5.165Z" fill="#5E055B"/><path d="m20.82 10.66-6.973 8.17L20.821 27h13.935L20.821 10.66Z" fill="#9F4EA0"/><path d="M34.756 10.66 20.816 27h13.94l13.94-16.34h-13.94Z" fill="#E8A7F9"/><path opacity=".2" d="m34.757 10.66.466 1.316h10.762L34.29 25.684 34.757 27l13.94-16.34h-13.94Z" fill="#5E055B"/><path d="M27.88 0H13.94l13.94 16.342 6.97-8.17L27.88 0Z" fill="#FFBAF0"/><path d="M13.94 0 0 16.342h13.94l6.972-8.17L13.94 0Z" fill="#D869CD"/><path opacity=".2" d="M27.88 0H13.94l2.713 1.318h10.761l5.848 6.854h1.588L27.88 0Z" fill="#5E055B"/><path d="m13.94 0 6.972 8.172-1.604 1.88L13.94 0Z" fill="#C84ACB"/><path d="m20.816 27 6.971-8.17-1.604-1.881-5.367 10.05Z" fill="#611F5A"/></g><defs><clipPath id="a"><path fill="#fff" d="M0 0h112v27H0z"/></clipPath></defs></svg>