<svg width="251" height="63" fill="none" xmlns="http://www.w3.org/2000/svg"><g clip-path="url(#a)"><path d="M125.607 5.864h6.695V31.9h15.995v5.703h-22.69V5.865ZM170.942 34.733c-1.999 2.445-5.033 3.667-9.107 3.667-4.074 0-7.103-1.222-9.107-3.667-1.999-2.445-2.998-5.39-2.998-8.835 0-3.384.999-6.32 2.998-8.8 2.004-2.48 5.038-3.722 9.107-3.722 4.074 0 7.108 1.242 9.107 3.723 1.998 2.48 2.998 5.415 2.998 8.799 0 3.445-1 6.385-2.998 8.835Zm-4.957-3.395c.969-1.273 1.459-3.086 1.459-5.44 0-2.349-.485-4.162-1.459-5.43-.968-1.268-2.365-1.905-4.17-1.905-1.811 0-3.208.637-4.187 1.905-.979 1.268-1.468 3.081-1.468 5.43 0 2.354.489 4.162 1.468 5.44.974 1.278 2.371 1.915 4.187 1.915 1.805 0 3.202-.637 4.17-1.915ZM190.42 13.583c.076.01.26.02.535.035v6.284c-.393-.04-.739-.07-1.04-.086-.306-.015-.551-.02-.74-.02-2.493 0-4.165.803-5.022 2.41-.479.904-.719 2.298-.719 4.177v11.219h-6.236V14.133h5.91v4.092c.953-1.566 1.789-2.637 2.498-3.208 1.158-.96 2.667-1.44 4.523-1.44.117-.004.214-.004.291.006ZM208.908 14.608c1.652.733 3.019 1.89 4.095 3.47.969 1.395 1.601 3.011 1.886 4.855.164 1.076.235 2.632.204 4.657h-17.254c.096 2.354.922 4.006 2.478 4.95.948.592 2.085.885 3.416.885 1.412 0 2.56-.36 3.442-1.076.479-.39.907-.925 1.274-1.617h6.323c-.168 1.394-.933 2.809-2.294 4.243-2.122 2.283-5.094 3.425-8.913 3.425-3.157 0-5.936-.96-8.347-2.89-2.412-1.924-3.61-5.056-3.61-9.395 0-4.061 1.081-7.183 3.258-9.35s5.002-3.253 8.469-3.253c2.065-.005 3.921.359 5.573 1.096Zm-9.264 5.3c-.877.893-1.423 2.106-1.647 3.631h10.672c-.118-1.626-.663-2.864-1.652-3.708-.984-.843-2.213-1.262-3.672-1.262-1.596 0-2.829.444-3.701 1.338ZM246.676 14.22c1.015.403 1.933 1.106 2.764 2.11.668.82 1.116 1.824 1.346 3.017.143.787.219 1.944.219 3.465l-.046 14.79h-6.348V22.655c0-.889-.143-1.621-.433-2.197-.551-1.091-1.566-1.637-3.039-1.637-1.714 0-2.891.702-3.544 2.112-.337.747-.5 1.646-.5 2.692v13.972h-6.241V23.625c0-1.39-.143-2.404-.438-3.036-.52-1.131-1.54-1.702-3.065-1.702-1.764 0-2.952.57-3.559 1.702-.331.647-.5 1.607-.5 2.884v14.124h-6.282V14.174h6.017v3.425c.77-1.223 1.494-2.086 2.177-2.607 1.199-.919 2.759-1.379 4.671-1.379 1.81 0 3.274.394 4.39 1.182.898.733 1.581 1.672 2.045 2.824.811-1.379 1.82-2.39 3.019-3.036 1.274-.646 2.697-.97 4.262-.97 1.04 0 2.07.202 3.085.606ZM146.849 46.785h1.372v12.053h-1.372V46.785ZM160.474 46.785h4.553c2.743 0 4.553 1.445 4.553 3.819v.035c0 2.602-2.192 3.945-4.777 3.945h-2.958v4.254h-1.377V46.785h.006Zm4.38 6.562c2.014 0 3.339-1.066 3.339-2.652v-.035c0-1.723-1.3-2.617-3.268-2.617h-3.075v5.304h3.004ZM179.982 57.08l.852-1c1.269 1.136 2.483 1.702 4.17 1.702 1.637 0 2.713-.859 2.713-2.051v-.035c0-1.122-.607-1.758-3.166-2.294-2.8-.6-4.085-1.495-4.085-3.475v-.035c0-1.895 1.688-3.289 3.993-3.289 1.774 0 3.044.5 4.278 1.48l-.796 1.051c-1.131-.91-2.263-1.308-3.513-1.308-1.58 0-2.585.858-2.585 1.944v.036c0 1.136.622 1.773 3.299 2.344 2.713.586 3.962 1.566 3.962 3.404v.036c0 2.066-1.739 3.41-4.15 3.41-1.933.01-3.514-.627-4.972-1.92ZM200.408 53.791v-7.006h1.377v6.92c0 2.602 1.407 4.062 3.717 4.062 2.239 0 3.666-1.344 3.666-3.976v-7.006h1.372v6.905c0 3.511-2.035 5.34-5.079 5.34-3.003 0-5.053-1.829-5.053-5.239ZM222.482 46.785h1.392l4.431 6.577 4.431-6.577h1.392v12.053h-1.372v-9.765l-4.431 6.456h-.071l-4.431-6.44v9.749h-1.341V46.785Z" fill="#5E055B"/><path d="M46.66 24.873 31.032 43.936 46.66 63h31.231l-31.23-38.127Z" fill="#9F4EA0"/><path d="M77.891 24.873 46.651 63h31.24l31.241-38.127h-31.24Z" fill="#E8A7F9"/><path opacity=".2" d="m77.891 24.873 1.046 3.07h24.118L76.846 59.93l1.045 3.07 31.241-38.126h-31.24Z" fill="#5E055B"/><path d="M62.482 0h-31.24l31.24 38.132L78.1 19.07 62.482 0Z" fill="#FFBAF0"/><path d="M31.241 0 0 38.132h31.241L46.864 19.07 31.241 0Z" fill="#D869CD"/><path opacity=".2" d="M62.482 0h-31.24l6.077 3.076h24.118L74.541 19.07h3.56L62.481 0Z" fill="#5E055B"/><path d="m31.241 0 15.623 19.069-3.594 4.384L31.24 0Z" fill="#C84ACB"/><path d="m46.65 63 15.623-19.064-3.595-4.39L46.65 63Z" fill="#611F5A"/></g><defs><clipPath id="a"><path fill="#fff" d="M0 0h251v63H0z"/></clipPath></defs></svg>