<svg width="24" height="24" fill="none" xmlns="http://www.w3.org/2000/svg"><path d="M22.5 8.598h-3.905l-3.092-4.645a.75.75 0 1 0-1.249.83l2.539 3.815H7.207l2.539-3.814a.75.75 0 1 0-1.249-.831L5.405 8.598H1.5a.75.75 0 0 0 0 1.5h.625l2.13 7.89a3.246 3.246 0 0 0 3.127 2.394h9.236a3.246 3.246 0 0 0 3.128-2.395l2.13-7.89h.624a.75.75 0 1 0 0-1.5Zm-4.202 8.998a1.743 1.743 0 0 1-1.68 1.286H7.382a1.744 1.744 0 0 1-1.68-1.286l-2.024-7.498h16.644l-2.024 7.498Z" fill="#5E055B"/><path d="M7.622 16.32a.75.75 0 1 0 1.448-.392l-.882-3.267a.75.75 0 1 0-1.448.391l.882 3.268ZM15.459 16.848a.751.751 0 0 0 .92-.528l.88-3.268a.75.75 0 1 0-1.447-.39l-.882 3.266a.75.75 0 0 0 .529.92ZM12 16.874a.748.748 0 0 0 .75-.75v-3.267a.75.75 0 1 0-1.5 0v3.267a.752.752 0 0 0 .75.75Z" fill="#5E055B"/></svg>