<svg width="74" height="75" fill="none" xmlns="http://www.w3.org/2000/svg"><g filter="url(#a)"><circle cx="33.965" cy="34.471" r="26.57" fill="url(#b)"/></g><path d="M32.717 19.305h2.244c.069.023.138.046.207.062.452.061.911.1 1.363.191 3.998.797 7.16 2.887 9.474 6.242.765 1.11 1.37 2.32 1.761 3.623-2.374 0-4.756 0-7.13-.008 0-.092.008-.192.008-.284.015-.758-.345-1.072-1.103-.934-.207.038-.406.092-.613.138-.145-.038-.299-.115-.444-.115-3.638-.008-7.268-.008-10.906 0-2.428.008-4.856.03-7.284.046a13.77 13.77 0 0 1 2.55-4.028c2.283-2.528 5.094-4.113 8.456-4.703.46-.092.942-.16 1.417-.23Z" fill="#fff"/><path d="M48.505 35.159c-.053.36-.092.727-.176 1.087-.176.789-.383 1.57-.574 2.36-.245-.04-.483-.108-.728-.108-2.604-.008-5.215-.008-7.82-.008 0-.038 0-.076.008-.115.36-2.205.728-4.411 1.08-6.617.123-.781.215-1.57.33-2.351 2.374 0 4.755 0 7.13.008.191.788.398 1.57.574 2.358.084.36.115.72.176 1.088v2.298ZM19.702 38.154a14.175 14.175 0 0 1-.59-4.84 14.417 14.417 0 0 1 1.08-4.871c.023-.061.053-.123.084-.184 2.428-.015 4.856-.046 7.284-.046 3.637-.008 7.268 0 10.905 0 .146 0 .3.077.445.115-.43.16-.858.314-1.28.49-4.043 1.716-8.095 3.431-12.138 5.147-.2.084-.399.199-.567.33-.39.298-.36.642.069.88.092.053.184.1.283.13.843.253 1.677.513 2.528.758.796.23 1.531.054 2.205-.406.092-.06.192-.13.284-.191 1.93-1.28 3.852-2.558 5.782-3.837.092-.061.2-.13.306-.146.085-.015.23.023.268.092.046.07.031.215-.015.284-.092.145-.214.268-.337.39-1.164 1.118-2.343 2.229-3.508 3.347-.329.314-.666.636-.965.98-.367.422-.329.766.077 1.15.13.122.276.237.414.352-4.006 0-8.02 0-12.025.007-.191.008-.39.046-.59.07Z" fill="#fff"/><path d="M32.324 38.086c-.138-.115-.283-.222-.413-.352-.406-.391-.445-.728-.077-1.15.299-.344.636-.666.965-.98 1.164-1.118 2.336-2.228 3.508-3.346.122-.115.245-.245.337-.391.046-.076.061-.222.015-.283-.038-.062-.184-.1-.268-.092-.107.015-.214.084-.306.145-1.93 1.28-3.853 2.558-5.783 3.837-.091.062-.191.123-.283.192-.674.46-1.41.635-2.206.406-.842-.245-1.685-.506-2.527-.759-.1-.03-.192-.076-.283-.13-.43-.237-.46-.582-.07-.88.177-.13.368-.246.567-.33 4.044-1.723 8.088-3.439 12.14-5.146.42-.177.857-.33 1.278-.49.207-.047.406-.1.613-.139.75-.137 1.118.169 1.103.935 0 .092-.008.191-.008.283-.107.782-.199 1.57-.329 2.351-.352 2.206-.72 4.412-1.08 6.618-.008.038-.008.076-.008.114-.023.115-.038.223-.069.337-.168.674-.313 1.364-.528 2.03-.138.414-.482.597-.911.513a3.286 3.286 0 0 1-1.004-.367c-.681-.406-1.34-.866-1.998-1.303-.797-.55-1.586-1.087-2.375-1.623Z" fill="#27A5E4"/><path d="M32.324 38.085c.789.536 1.578 1.08 2.374 1.608.659.444 1.318.896 2 1.302a2.99 2.99 0 0 0 1.003.368c.436.084.78-.1.91-.514.215-.666.36-1.347.53-2.03.03-.106.045-.221.068-.336 2.604 0 5.216 0 7.82.008.245 0 .482.069.727.107-.26.613-.482 1.248-.78 1.846-.36.704-.744 1.401-1.188 2.052a14.176 14.176 0 0 1-4.45 4.136c-2.412 1.432-5.024 2.144-7.82 2.068-4.25-.115-7.819-1.777-10.683-4.917a13.978 13.978 0 0 1-3.056-5.361 3.728 3.728 0 0 1-.076-.276c.199-.023.398-.061.597-.061h12.024Z" fill="#fff"/><defs><linearGradient id="b" x1="7.395" y1="14.246" x2="57.699" y2="60.299" gradientUnits="userSpaceOnUse"><stop stop-color="#56BFF3"/><stop offset="1" stop-color="#057BB6"/></linearGradient><filter id="a" x=".395" y=".901" width="73.141" height="73.141" filterUnits="userSpaceOnUse" color-interpolation-filters="sRGB"><feFlood flood-opacity="0" result="BackgroundImageFix"/><feColorMatrix in="SourceAlpha" values="0 0 0 0 0 0 0 0 0 0 0 0 0 0 0 0 0 0 127 0" result="hardAlpha"/><feOffset dx="3" dy="3"/><feGaussianBlur stdDeviation="5"/><feComposite in2="hardAlpha" operator="out"/><feColorMatrix values="0 0 0 0 0 0 0 0 0 0 0 0 0 0 0 0 0 0 0.3 0"/><feBlend in2="BackgroundImageFix" result="effect1_dropShadow_503_2211"/><feBlend in="SourceGraphic" in2="effect1_dropShadow_503_2211" result="shape"/></filter></defs></svg>