<svg width="20" height="20" fill="none" xmlns="http://www.w3.org/2000/svg"><path d="m18.042 18.838-3.565-3.566a8.135 8.135 0 1 1 .795-.795l2.77 4.36Zm0 0a.562.562 0 0 0 .397.162m-.397-.162.397.162m0 0c.149 0 .291-.06.396-.165M18.44 19l.396-.165m0 0A.563.563 0 0 0 19 18.44m-.165.396L19 18.44m0 0a.563.563 0 0 0-.162-.397l.162.397Zm-.075-.487-3.482-3.482a8.261 8.261 0 1 0-.973.973l3.484 3.483a.688.688 0 0 0 .973-.972h-.001l-.001-.002Zm-9.79-1.931A6.885 6.885 0 0 1 4.268 4.267a6.885 6.885 0 0 1 9.737 9.738 6.84 6.84 0 0 1-4.868 2.016Z" fill="#5E055B" stroke="#5E055B" stroke-width=".25"/></svg>