<svg width="74" height="75" fill="none" xmlns="http://www.w3.org/2000/svg"><g filter="url(#a)"><circle cx="33.571" cy="34.471" r="26.57" fill="url(#b)"/></g><path d="M33.32 20.06c1.318 0 2.646-.09 3.963.02 3.643.31 6.408 2.106 8.315 5.2.998 1.617 1.487 3.394 1.497 5.29.01 1.707.02 3.414-.01 5.13-.08 4.971-3.923 9.413-8.834 10.201-.748.12-1.507.15-2.265.17-1.547.02-3.094.01-4.641 0-.26 0-.44.07-.62.26a514.587 514.587 0 0 1-4.052 4.042c-.14.14-.34.27-.529.3-.3.04-.489-.22-.489-.61 0-1.537-.01-3.064.01-4.6 0-.29-.09-.43-.34-.57-3.692-2.046-5.659-5.18-5.788-9.412-.05-1.697-.03-3.394 0-5.09.08-4.931 3.872-9.333 8.713-10.191 1.547-.28 3.104-.16 4.661-.2h.41v.06Zm-8.553 9.492c.02 1.118.38 2.156.878 3.134 1.557 3.084 3.853 5.53 6.648 7.526 1.217.868 2.505 1.587 3.982 1.906.918.2 1.827.21 2.575-.479.52-.479 1.028-.978 1.527-1.497a1.602 1.602 0 0 0-.01-2.256 111.372 111.372 0 0 0-2.155-2.185c-.849-.849-2.057-.61-2.536.489-.359.828-1.148 1.227-1.986.888-1.846-.749-3.154-2.066-3.883-3.923-.369-.948 0-1.646.949-2.026 1.038-.419 1.327-1.637.569-2.455a59.808 59.808 0 0 0-2.216-2.286c-.66-.649-1.617-.639-2.286 0-.42.41-.819.839-1.258 1.228-.579.519-.818 1.168-.798 1.936Zm17.128 1.927c-.04-.45-.06-.809-.11-1.168-.48-3.603-3.893-6.358-7.516-6.069-.39.03-.599.23-.579.54.02.309.26.468.639.478.499.01.998 0 1.487.1 3.473.699 5.57 3.843 4.89 7.316-.079.39.04.65.34.719.34.08.589-.1.659-.529.08-.48.13-.978.19-1.387Zm-7.277-4.172c1.967-.01 3.593 1.227 4.043 3.084.12.479.09.988.12 1.477.01.3.16.509.429.519.17.01.379-.13.519-.27.09-.09.09-.28.09-.429a5.149 5.149 0 0 0-3.274-5.08c-.749-.29-1.517-.38-2.316-.32-.35.03-.559.26-.539.55.02.289.26.488.599.478.13 0 .25-.01.33-.01Zm.25 1.008c-.41-.01-.649.16-.659.489-.01.309.19.499.539.539 1.218.12 1.887.788 2.006 2.016.03.34.26.559.55.529.289-.03.488-.27.478-.609-.03-1.547-1.367-2.915-2.914-2.964Z" fill="#fff"/><path d="M24.767 29.553c-.03-.769.22-1.417.799-1.937.439-.389.838-.818 1.257-1.227.669-.639 1.627-.649 2.286 0a79.763 79.763 0 0 1 2.226 2.276c.758.818.469 2.026-.57 2.455-.948.39-1.317 1.088-.948 2.026.73 1.857 2.027 3.184 3.883 3.923.839.34 1.627-.06 1.986-.889.47-1.098 1.677-1.337 2.536-.489.728.719 1.437 1.448 2.156 2.186.618.649.628 1.607.01 2.256-.49.509-.998 1.008-1.527 1.497-.75.699-1.657.679-2.576.48-1.477-.32-2.774-1.039-3.982-1.907-2.795-1.996-5.09-4.442-6.648-7.526-.509-.978-.868-2.006-.888-3.124ZM41.894 31.478c-.05.41-.11.909-.19 1.398-.07.419-.329.608-.658.529-.29-.07-.41-.33-.34-.719.68-3.474-1.417-6.628-4.89-7.316-.48-.1-.988-.09-1.487-.1-.38-.01-.62-.16-.64-.48-.02-.308.19-.508.58-.538 3.623-.29 7.026 2.455 7.516 6.069.04.349.06.708.11 1.157Z" fill="#857CCA"/><path d="M34.616 27.306c-.08 0-.2.02-.319.02-.34.01-.579-.19-.599-.479-.02-.29.19-.519.54-.549.788-.07 1.566.03 2.315.32a5.149 5.149 0 0 1 3.274 5.08c-.01.15-.01.34-.09.429-.13.13-.34.27-.52.27-.269-.01-.419-.22-.428-.52-.02-.499 0-1.008-.12-1.477-.46-1.866-2.096-3.104-4.053-3.094Z" fill="#857CCA"/><path d="M34.865 28.315c1.547.05 2.885 1.417 2.915 2.964.01.34-.19.58-.48.61-.289.03-.508-.19-.548-.53-.12-1.218-.789-1.886-2.007-2.016-.359-.04-.549-.23-.539-.539.01-.33.24-.509.66-.489Z" fill="#857CCA"/><defs><linearGradient id="b" x1="7" y1="14.246" x2="55.952" y2="58.205" gradientUnits="userSpaceOnUse"><stop stop-color="#9C93DD"/><stop offset="1" stop-color="#5A4FB3"/></linearGradient><filter id="a" x="0" y=".901" width="73.141" height="73.141" filterUnits="userSpaceOnUse" color-interpolation-filters="sRGB"><feFlood flood-opacity="0" result="BackgroundImageFix"/><feColorMatrix in="SourceAlpha" values="0 0 0 0 0 0 0 0 0 0 0 0 0 0 0 0 0 0 127 0" result="hardAlpha"/><feOffset dx="3" dy="3"/><feGaussianBlur stdDeviation="5"/><feComposite in2="hardAlpha" operator="out"/><feColorMatrix values="0 0 0 0 0 0 0 0 0 0 0 0 0 0 0 0 0 0 0.3 0"/><feBlend in2="BackgroundImageFix" result="effect1_dropShadow_503_2202"/><feBlend in="SourceGraphic" in2="effect1_dropShadow_503_2202" result="shape"/></filter></defs></svg>