<svg width="74" height="75" fill="none" xmlns="http://www.w3.org/2000/svg"><g filter="url(#a)"><circle cx="33.942" cy="34.471" r="26.57" fill="url(#b)"/></g><path d="M20.405 35.36v-2.038c.02-.046.046-.091.052-.137.092-.582.144-1.176.268-1.751 1.196-5.429 5.664-9.577 11.132-10.355.294-.039.588-.098.882-.143h2.039c.039.02.071.046.11.046 1.105.091 2.183.32 3.234.672 5.834 1.973 9.623 7.86 8.976 13.987-.3 2.822-1.345 5.344-3.253 7.46-3.181 3.528-7.16 5.018-11.883 4.456-1.92-.229-3.691-.901-5.318-1.947a.48.48 0 0 0-.457-.059c-.947.314-1.901.614-2.855.922-.666.215-1.333.424-2.038.646.032-.11.058-.183.078-.254.484-1.45.967-2.901 1.463-4.351.092-.255.072-.438-.084-.667a12.985 12.985 0 0 1-2.215-5.71c-.026-.26-.085-.515-.13-.777Zm17.743 6.5c.007-.02.013-.039.013-.058.157-.007.314-.007.47-.026.216-.033.432-.072.635-.144 1.9-.667 2.54-1.581 2.587-3.338a.536.536 0 0 0-.327-.543c-1.006-.477-2.006-.973-3.012-1.437-.503-.235-.797-.137-1.13.307-.261.346-.516.706-.784 1.045-.425.536-.699.601-1.333.347-2.181-.895-3.815-2.424-5.036-4.41-.275-.444-.262-.608.078-1 .255-.287.516-.568.758-.862.209-.261.411-.549.261-.908-.47-1.13-.947-2.26-1.437-3.384-.052-.124-.19-.261-.314-.287-.705-.17-1.417-.183-2.025.267-.588.432-.986 1.026-1.241 1.712-.49 1.313-.327 2.594.215 3.854.399.922.974 1.725 1.562 2.522a19.43 19.43 0 0 0 3.011 3.247c1.53 1.306 3.313 2.136 5.22 2.704.601.164 1.222.262 1.83.392Z" fill="#fff"/><path d="M38.152 41.861c-.607-.13-1.228-.228-1.822-.405-1.908-.568-3.685-1.398-5.22-2.704a19.433 19.433 0 0 1-3.012-3.247c-.588-.797-1.162-1.607-1.561-2.522-.542-1.26-.706-2.541-.216-3.854.255-.686.654-1.274 1.242-1.712.607-.45 1.32-.431 2.025-.268.124.026.261.17.313.288.49 1.123.967 2.254 1.438 3.384.15.36-.053.646-.262.908-.235.3-.503.575-.758.862-.346.392-.352.549-.078 1 1.222 1.992 2.855 3.514 5.037 4.41.634.26.915.189 1.333-.347.267-.34.522-.699.784-1.045.333-.444.633-.536 1.13-.307 1.006.47 2.005.96 3.011 1.437.229.111.334.281.327.542-.046 1.758-.68 2.679-2.587 3.339a3.43 3.43 0 0 1-.634.143c-.157.026-.313.02-.47.026-.013.033-.013.053-.02.072Z" fill="#4CAE50"/><defs><linearGradient id="b" x1="7.371" y1="7.901" x2="56.252" y2="59.609" gradientUnits="userSpaceOnUse"><stop stop-color="#70DA74"/><stop offset="1" stop-color="#18871D"/></linearGradient><filter id="a" x=".371" y=".901" width="73.141" height="73.141" filterUnits="userSpaceOnUse" color-interpolation-filters="sRGB"><feFlood flood-opacity="0" result="BackgroundImageFix"/><feColorMatrix in="SourceAlpha" values="0 0 0 0 0 0 0 0 0 0 0 0 0 0 0 0 0 0 127 0" result="hardAlpha"/><feOffset dx="3" dy="3"/><feGaussianBlur stdDeviation="5"/><feComposite in2="hardAlpha" operator="out"/><feColorMatrix values="0 0 0 0 0 0 0 0 0 0 0 0 0 0 0 0 0 0 0.3 0"/><feBlend in2="BackgroundImageFix" result="effect1_dropShadow_503_2219"/><feBlend in="SourceGraphic" in2="effect1_dropShadow_503_2219" result="shape"/></filter></defs></svg>