<svg width="25" height="29" fill="none" xmlns="http://www.w3.org/2000/svg"><path d="M24.322 14.635c-.297-1.29-1.351-2.24-2.62-2.382-3.006-.336-6.049-.337-9.077-.336-3.03-.001-6.072 0-9.078.336-1.269.142-2.323 1.093-2.62 2.382C.506 16.471.5 18.475.5 20.365c0 1.89 0 3.895.422 5.73.297 1.29 1.35 2.24 2.62 2.382 3.006.336 6.048.338 9.078.336 3.029.002 6.07 0 9.077-.336 1.27-.142 2.324-1.093 2.62-2.381.422-1.837.424-3.84.424-5.73 0-1.891.003-3.895-.419-5.731ZM7.415 16.058H5.66v9.323H4.03v-9.323H2.308v-1.527h5.107v1.527Zm4.426 9.323h-1.466V24.5c-.582.668-1.135.994-1.674.994-.472 0-.797-.192-.944-.601-.08-.245-.129-.632-.129-1.203v-6.392h1.465v5.952c0 .343 0 .522.013.57.035.227.146.342.343.342.294 0 .6-.226.926-.686v-6.178h1.466v8.084Zm5.565-2.426c0 .748-.05 1.286-.148 1.629-.195.601-.587.909-1.17.909-.521 0-1.024-.29-1.514-.895v.784h-1.465V14.53h1.465v3.543c.473-.582.975-.877 1.514-.877.583 0 .975.307 1.17.913.099.325.148.86.148 1.625v3.22Zm5.529-1.35h-2.93v1.434c0 .748.245 1.122.749 1.122.36 0 .57-.196.654-.587.014-.08.033-.405.033-.993h1.494v.214c0 .472-.018.797-.031.944-.05.324-.164.618-.342.877-.406.587-1.007.877-1.772.877-.766 0-1.35-.276-1.773-.828-.31-.405-.47-1.042-.47-1.901v-2.832c0-.864.141-1.496.452-1.905.424-.553 1.007-.829 1.755-.829.735 0 1.318.276 1.728.83.307.408.454 1.04.454 1.904v1.674h-.001Z" fill="#5E055B"/><path d="M20.74 18.517c-.49 0-.736.374-.736 1.122v.748h1.465v-.748c0-.748-.245-1.122-.73-1.122ZM15.305 18.517c-.242 0-.486.114-.73.357V23.8c.244.245.489.361.73.361.422 0 .637-.36.637-1.09V19.62c0-.729-.215-1.103-.637-1.103ZM16.121 11.173c.54 0 1.102-.328 1.691-1.004v.892h1.48V2.89h-1.48v6.244c-.328.463-.639.693-.935.693-.198 0-.315-.117-.347-.347-.018-.048-.018-.229-.018-.575V2.89h-1.476v6.46c0 .578.05.968.131 1.216.15.414.478.607.954.607ZM5.815 6.62v4.441h1.642v-4.44L9.432.097h-1.66l-1.12 4.306L5.485.097H3.758c.346 1.016.707 2.038 1.053 3.055.526 1.53.855 2.682 1.004 3.469ZM11.633 11.173c.742 0 1.319-.279 1.727-.836.311-.41.46-1.053.46-1.922v-2.86c0-.874-.149-1.513-.46-1.925-.409-.56-.984-.838-1.727-.838-.737 0-1.314.279-1.723.838-.315.412-.464 1.05-.464 1.924v2.861c0 .869.15 1.513.464 1.922.41.557.986.836 1.723.836Zm-.706-5.915c0-.756.23-1.133.706-1.133.478 0 .706.376.706 1.133v3.436c0 .756-.228 1.135-.706 1.135-.477 0-.706-.379-.706-1.135V5.258Z" fill="#5E055B"/></svg>